<svg width="60" height="60" viewBox="0 0 60 60" fill="none" xmlns="http://www.w3.org/2000/svg">
<path d="M58.2425 56.4837H52.8512V52.8512H40.5462C39.575 52.8512 38.7887 52.0649 38.7887 51.0937C38.7887 50.1224 39.575 49.3362 40.5462 49.3362H52.8512V45.8212H40.5462C39.575 45.8212 38.7887 45.0349 38.7887 44.0637C38.7887 43.0924 39.575 42.3062 40.5462 42.3062H52.8512V38.7912H40.5462C39.575 38.7912 38.7887 38.0049 38.7887 37.0337C38.7887 36.0624 39.575 35.2762 40.5462 35.2762H52.8512V31.7612H40.5462C39.575 31.7612 38.7887 30.9749 38.7887 30.0037C38.7887 29.0324 39.575 28.2462 40.5462 28.2462H52.8512V24.7312H40.5462C39.575 24.7312 38.7887 23.9449 38.7887 22.9737C38.7887 22.0024 39.575 21.2162 40.5462 21.2162H52.8512V17.6999H40.5462C39.575 17.6999 38.7887 16.9137 38.7887 15.9424C38.7887 14.9712 39.575 14.1849 40.5462 14.1849H52.8512V12.4212C52.8512 11.8037 52.5262 11.2312 51.9975 10.9137L34.42 0.251169C33.8762 -0.0750813 33.2 -0.0838313 32.6488 0.228669C32.0975 0.541169 31.7575 1.12492 31.7575 1.75867V56.4849H28.2413V52.8524H22.9675V56.4849H19.4525V52.8524H15.9375V56.4849H12.4213V52.8524H7.14875V56.4849H1.7575C0.78625 56.4837 0 57.2712 0 58.2424C0 59.2137 0.78625 59.9999 1.7575 59.9999H58.2425C59.2138 59.9999 60 59.2137 60 58.2424C60 57.2712 59.2138 56.4837 58.2425 56.4837Z" fill="#159957"/>
<path d="M28.2426 38.7887H7.1488V42.305H28.2426V38.7887Z" fill="#159957"/>
<path d="M28.2426 31.7575H7.1488V35.2737H28.2426V31.7575Z" fill="#159957"/>
<path d="M28.2426 7.81998L8.12005 17.8812C7.5238 18.18 7.1488 18.7875 7.1488 19.4537V21.2112H28.2426V7.81998Z" fill="#159957"/>
<path d="M28.2426 45.82H7.1488V49.3362H28.2426V45.82Z" fill="#159957"/>
<path d="M28.2426 24.7262H7.1488V28.2425H28.2426V24.7262Z" fill="#159957"/>
</svg>
