<svg width="185" height="169" viewBox="0 0 185 169" fill="none" xmlns="http://www.w3.org/2000/svg">
<path d="M0.686 154.114C0.686 157.026 2.674 159.084 5.558 159.084C8.428 159.084 10.402 157.026 10.402 154.114C10.402 151.202 8.428 149.144 5.558 149.144C2.674 149.144 0.686 151.202 0.686 154.114ZM9.8 154.114C9.8 156.732 8.162 158.538 5.558 158.538C2.926 158.538 1.288 156.732 1.288 154.114C1.288 151.482 2.926 149.704 5.558 149.704C8.162 149.704 9.8 151.482 9.8 154.114ZM8.4 152.952H7.224C6.986 152.196 6.328 151.79 5.53 151.79C4.466 151.79 3.626 152.574 3.626 154.114C3.626 155.64 4.466 156.424 5.53 156.424C6.398 156.424 6.958 156.004 7.224 155.262H8.4C8.036 156.522 6.944 157.348 5.53 157.348C3.85 157.348 2.492 156.116 2.492 154.1C2.492 152.084 3.85 150.866 5.53 150.866C6.944 150.866 8.036 151.622 8.4 152.952ZM21.1483 149.228H15.8983V159H21.1483V157.95H17.1723V154.59H20.7283V153.54H17.1723V150.278H21.1483V149.228ZM22.166 151.328L25.176 159H26.66L29.67 151.328H28.312L25.932 157.824L23.538 151.328H22.166ZM38.2037 155.15C38.2037 152.728 36.5097 151.202 34.3257 151.202C32.1557 151.202 30.4477 152.728 30.4477 155.15C30.4477 157.586 32.0997 159.126 34.2697 159.126C36.4537 159.126 38.2037 157.586 38.2037 155.15ZM31.7497 155.15C31.7497 153.218 32.9677 152.308 34.3117 152.308C35.6277 152.308 36.9017 153.218 36.9017 155.15C36.9017 157.096 35.5997 158.006 34.2697 158.006C32.9397 158.006 31.7497 157.096 31.7497 155.15ZM50.9528 159H52.2128V154.478C52.2128 152.28 50.8548 151.188 49.1048 151.188C47.9288 151.188 46.8368 151.79 46.3888 152.896C45.8848 151.748 44.8348 151.188 43.5748 151.188C42.5668 151.188 41.6568 151.622 41.1528 152.434V151.328H39.8788V159H41.1528V154.772C41.1528 153.12 42.0348 152.294 43.3228 152.294C44.5828 152.294 45.4228 153.092 45.4228 154.66V159H46.6828V154.772C46.6828 153.12 47.5648 152.294 48.8528 152.294C50.1128 152.294 50.9528 153.092 50.9528 154.66V159ZM61.5826 155.15C61.5826 152.728 59.8886 151.202 57.7046 151.202C55.5346 151.202 53.8266 152.728 53.8266 155.15C53.8266 157.586 55.4786 159.126 57.6486 159.126C59.8326 159.126 61.5826 157.586 61.5826 155.15ZM55.1286 155.15C55.1286 153.218 56.3466 152.308 57.6906 152.308C59.0066 152.308 60.2806 153.218 60.2806 155.15C60.2806 157.096 58.9786 158.006 57.6486 158.006C56.3186 158.006 55.1286 157.096 55.1286 155.15ZM68.2641 152.756V148.64H66.9901V159H68.2641V157.586C68.7401 158.426 69.7341 159.126 71.1341 159.126C73.1921 159.126 74.7741 157.516 74.7741 155.136C74.7741 152.742 73.2061 151.202 71.1341 151.202C69.7761 151.202 68.7541 151.902 68.2641 152.756ZM73.4721 155.136C73.4721 156.942 72.2821 158.006 70.8681 158.006C69.4821 158.006 68.2641 156.956 68.2641 155.15C68.2641 153.372 69.4821 152.308 70.8681 152.308C72.2821 152.308 73.4721 153.33 73.4721 155.136ZM79.363 157.544L76.955 151.328H75.541L78.635 158.916L77.123 162.612H78.439L83.059 151.328H81.743L79.363 157.544ZM91.6981 156.452C91.6981 157.264 91.2921 157.964 90.2841 157.964C89.2761 157.964 88.8561 157.25 88.8421 156.354H87.5681C87.5681 158.062 88.6601 159.098 90.2841 159.098C91.8941 159.098 92.9861 158.076 92.9861 156.452V149.242H91.6981V156.452ZM98.758 152.28C100.074 152.28 101.194 153.106 101.18 154.604H96.336C96.476 153.106 97.512 152.28 98.758 152.28ZM102.342 156.634H100.97C100.69 157.46 99.962 158.048 98.814 158.048C97.512 158.048 96.42 157.194 96.322 155.64H102.454C102.482 155.374 102.496 155.15 102.496 154.87C102.496 152.77 101.04 151.202 98.814 151.202C96.574 151.202 95.02 152.728 95.02 155.15C95.02 157.586 96.63 159.126 98.814 159.126C100.718 159.126 101.95 158.034 102.342 156.634ZM103.702 155.136C103.702 157.516 105.284 159.126 107.328 159.126C108.742 159.126 109.736 158.398 110.198 157.572V159H111.486V151.328H110.198V152.728C109.75 151.93 108.77 151.202 107.342 151.202C105.284 151.202 103.702 152.742 103.702 155.136ZM110.198 155.15C110.198 156.956 108.994 158.006 107.594 158.006C106.194 158.006 105.004 156.942 105.004 155.136C105.004 153.33 106.194 152.308 107.594 152.308C108.994 152.308 110.198 153.372 110.198 155.15ZM113.163 155.136C113.163 157.516 114.745 159.126 116.803 159.126C118.203 159.126 119.197 158.384 119.659 157.558V159.168C119.659 160.806 118.637 161.674 117.279 161.674C116.019 161.674 115.109 161.044 114.829 160.12H113.569C113.821 161.758 115.263 162.78 117.279 162.78C119.533 162.78 120.947 161.282 120.947 159.168V151.328H119.659V152.728C119.211 151.902 118.203 151.202 116.803 151.202C114.745 151.202 113.163 152.742 113.163 155.136ZM119.659 155.15C119.659 156.956 118.455 158.006 117.055 158.006C115.655 158.006 114.465 156.942 114.465 155.136C114.465 153.33 115.655 152.308 117.055 152.308C118.455 152.308 119.659 153.372 119.659 155.15ZM126.361 152.28C127.677 152.28 128.797 153.106 128.783 154.604H123.939C124.079 153.106 125.115 152.28 126.361 152.28ZM129.945 156.634H128.573C128.293 157.46 127.565 158.048 126.417 158.048C125.115 158.048 124.023 157.194 123.925 155.64H130.057C130.085 155.374 130.099 155.15 130.099 154.87C130.099 152.77 128.643 151.202 126.417 151.202C124.177 151.202 122.623 152.728 122.623 155.15C122.623 157.586 124.233 159.126 126.417 159.126C128.321 159.126 129.553 158.034 129.945 156.634ZM133.055 154.828C133.055 153.05 133.979 152.504 135.197 152.504H135.533V151.188C134.315 151.188 133.489 151.72 133.055 152.574V151.328H131.781V159H133.055V154.828ZM140.47 154.408H146.056V153.33H140.47V154.408ZM151.816 158.888H158.55V157.824H153.734C155.54 156.354 158.256 154.212 158.256 151.692C158.256 149.816 157.024 148.696 155.12 148.696C153.3 148.696 151.942 149.816 151.858 151.972H153.09C153.146 150.698 153.818 149.788 155.134 149.788C156.506 149.788 156.996 150.628 156.996 151.748C156.996 153.82 154.476 155.836 151.816 157.978V158.888ZM160.022 153.834C160.022 156.774 160.75 159 163.55 159C166.336 159 167.064 156.774 167.064 153.834C167.064 150.936 166.336 148.724 163.55 148.724C160.75 148.724 160.022 150.936 160.022 153.834ZM165.804 153.834C165.804 156.018 165.538 157.838 163.55 157.838C161.548 157.838 161.282 156.018 161.282 153.834C161.282 151.734 161.548 149.886 163.55 149.886C165.538 149.886 165.804 151.734 165.804 153.834ZM168.659 158.888H175.393V157.824H170.577C172.383 156.354 175.099 154.212 175.099 151.692C175.099 149.816 173.867 148.696 171.963 148.696C170.143 148.696 168.785 149.816 168.701 151.972H169.933C169.989 150.698 170.661 149.788 171.977 149.788C173.349 149.788 173.839 150.628 173.839 151.748C173.839 153.82 171.319 155.836 168.659 157.978V158.888ZM176.866 153.834C176.866 156.774 177.594 159 180.394 159C183.18 159 183.908 156.774 183.908 153.834C183.908 150.936 183.18 148.724 180.394 148.724C177.594 148.724 176.866 150.936 176.866 153.834ZM182.648 153.834C182.648 156.018 182.382 157.838 180.394 157.838C178.392 157.838 178.126 156.018 178.126 153.834C178.126 151.734 178.392 149.886 180.394 149.886C182.382 149.886 182.648 151.734 182.648 153.834Z" fill="#2B2B2B"/>
<path d="M117.981 44.4837C123.491 65.1388 117.535 87.3455 102.433 102.447C81.6524 123.228 49.3043 125.557 25.9331 109.433L41.7138 93.6518C56.2285 101.534 74.8056 99.3435 87.0677 87.0813C96.7021 77.4467 100.501 63.273 96.9816 50.0859C95.4326 44.2898 98.8808 38.3339 104.68 36.7884C110.476 35.2394 116.432 38.6872 117.981 44.4837Z" fill="url(#paint0_linear)"/>
<path d="M26.3481 78.2855L10.5674 94.0664C-5.55758 70.695 -3.22806 38.3465 17.5529 17.5654C32.6543 2.46376 54.8668 -3.49221 75.5187 2.02133C81.3147 3.5703 84.7629 9.52627 83.2139 15.3223C81.668 21.1214 75.7125 24.5635 69.9131 23.0176C56.7322 19.499 42.5526 23.2971 32.9181 32.9316C20.6564 45.1934 18.4656 63.7711 26.3481 78.2855Z" fill="url(#paint1_linear)"/>
<path d="M65.3497 54.6498C69.5937 58.8938 69.5937 65.7716 65.3497 70.0156L41.7138 93.6518C38.5516 91.9398 35.5858 89.7489 32.9186 87.0813C30.251 84.4136 28.0601 81.4482 26.3481 78.286L49.984 54.6498C54.228 50.4054 61.1088 50.4088 65.3497 54.6498Z" fill="url(#paint2_linear)"/>
<defs>
<linearGradient id="paint0_linear" x1="25.9332" y1="78.2087" x2="120" y2="78.2087" gradientUnits="userSpaceOnUse">
<stop offset="0.0056" stop-color="#155799"/>
<stop offset="0.2487" stop-color="#15628E"/>
<stop offset="0.6712" stop-color="#157E72"/>
<stop offset="1" stop-color="#159957"/>
</linearGradient>
<linearGradient id="paint1_linear" x1="1.3213e-05" y1="47.0332" x2="83.5845" y2="47.0332" gradientUnits="userSpaceOnUse">
<stop offset="0.0056" stop-color="#155799"/>
<stop offset="0.2487" stop-color="#15628E"/>
<stop offset="0.6712" stop-color="#157E72"/>
<stop offset="1" stop-color="#159957"/>
</linearGradient>
<linearGradient id="paint2_linear" x1="26.3481" y1="72.5596" x2="68.5327" y2="72.5596" gradientUnits="userSpaceOnUse">
<stop offset="0.0056" stop-color="#155799"/>
<stop offset="0.2487" stop-color="#15628E"/>
<stop offset="0.6712" stop-color="#157E72"/>
<stop offset="1" stop-color="#159957"/>
</linearGradient>
</defs>
</svg>
