<svg width="185" height="79" viewBox="0 0 185 79" fill="none" xmlns="http://www.w3.org/2000/svg">
<path d="M46.209 18.4057C48.3671 26.4957 46.0346 35.1933 40.1197 41.1081C31.9805 49.2474 19.3108 50.1596 10.1571 43.8441L16.3378 37.6633C22.0228 40.7506 29.2988 39.8925 34.1014 35.0898C37.8749 31.3163 39.3627 25.7649 37.9844 20.5999C37.3777 18.3298 38.7283 15.9971 40.9995 15.3918C43.2696 14.7851 45.6024 16.1355 46.209 18.4057Z" fill="url(#paint0_linear)"/>
<path d="M10.3197 31.6447L4.13889 37.8256C-2.17672 28.6718 -1.26432 16.002 6.87487 7.86268C12.7896 1.94788 21.4895 -0.384871 29.5782 1.7746C31.8482 2.38128 33.1988 4.71403 32.5921 6.98415C31.9866 9.25545 29.6541 10.6036 27.3826 9.99814C22.2201 8.62 16.6664 10.1076 12.8929 13.8811C8.09044 18.6837 7.23234 25.9599 10.3197 31.6447Z" fill="url(#paint1_linear)"/>
<path d="M25.5953 22.3874C27.2575 24.0497 27.2575 26.7435 25.5953 28.4057L16.3379 37.6632C15.0994 36.9927 13.9378 36.1346 12.8931 35.0897C11.8483 34.0449 10.9902 32.8835 10.3197 31.6449L19.5771 22.3874C21.2393 20.725 23.9343 20.7264 25.5953 22.3874Z" fill="url(#paint2_linear)"/>
<path d="M0.686 68.0798C0.686 70.9918 2.674 73.0498 5.558 73.0498C8.428 73.0498 10.402 70.9918 10.402 68.0798C10.402 65.1678 8.428 63.1098 5.558 63.1098C2.674 63.1098 0.686 65.1678 0.686 68.0798ZM9.8 68.0798C9.8 70.6978 8.162 72.5038 5.558 72.5038C2.926 72.5038 1.288 70.6978 1.288 68.0798C1.288 65.4478 2.926 63.6698 5.558 63.6698C8.162 63.6698 9.8 65.4478 9.8 68.0798ZM8.4 66.9178H7.224C6.986 66.1618 6.328 65.7558 5.53 65.7558C4.466 65.7558 3.626 66.5398 3.626 68.0798C3.626 69.6058 4.466 70.3898 5.53 70.3898C6.398 70.3898 6.958 69.9698 7.224 69.2278H8.4C8.036 70.4878 6.944 71.3138 5.53 71.3138C3.85 71.3138 2.492 70.0818 2.492 68.0658C2.492 66.0498 3.85 64.8318 5.53 64.8318C6.944 64.8318 8.036 65.5878 8.4 66.9178ZM21.1483 63.1938H15.8983V72.9658H21.1483V71.9158H17.1723V68.5558H20.7283V67.5058H17.1723V64.2438H21.1483V63.1938ZM22.166 65.2938L25.176 72.9658H26.66L29.67 65.2938H28.312L25.932 71.7898L23.538 65.2938H22.166ZM38.2037 69.1158C38.2037 66.6938 36.5097 65.1678 34.3257 65.1678C32.1557 65.1678 30.4477 66.6938 30.4477 69.1158C30.4477 71.5518 32.0997 73.0918 34.2697 73.0918C36.4537 73.0918 38.2037 71.5518 38.2037 69.1158ZM31.7497 69.1158C31.7497 67.1838 32.9677 66.2738 34.3117 66.2738C35.6277 66.2738 36.9017 67.1838 36.9017 69.1158C36.9017 71.0618 35.5997 71.9718 34.2697 71.9718C32.9397 71.9718 31.7497 71.0618 31.7497 69.1158ZM50.9528 72.9658H52.2128V68.4438C52.2128 66.2458 50.8548 65.1538 49.1048 65.1538C47.9288 65.1538 46.8368 65.7558 46.3888 66.8618C45.8848 65.7138 44.8348 65.1538 43.5748 65.1538C42.5668 65.1538 41.6568 65.5878 41.1528 66.3998V65.2938H39.8788V72.9658H41.1528V68.7378C41.1528 67.0858 42.0348 66.2598 43.3228 66.2598C44.5828 66.2598 45.4228 67.0578 45.4228 68.6258V72.9658H46.6828V68.7378C46.6828 67.0858 47.5648 66.2598 48.8528 66.2598C50.1128 66.2598 50.9528 67.0578 50.9528 68.6258V72.9658ZM61.5826 69.1158C61.5826 66.6938 59.8886 65.1678 57.7046 65.1678C55.5346 65.1678 53.8266 66.6938 53.8266 69.1158C53.8266 71.5518 55.4786 73.0918 57.6486 73.0918C59.8326 73.0918 61.5826 71.5518 61.5826 69.1158ZM55.1286 69.1158C55.1286 67.1838 56.3466 66.2738 57.6906 66.2738C59.0066 66.2738 60.2806 67.1838 60.2806 69.1158C60.2806 71.0618 58.9786 71.9718 57.6486 71.9718C56.3186 71.9718 55.1286 71.0618 55.1286 69.1158ZM68.2641 66.7218V62.6058H66.9901V72.9658H68.2641V71.5518C68.7401 72.3918 69.7341 73.0918 71.1341 73.0918C73.1921 73.0918 74.7741 71.4818 74.7741 69.1018C74.7741 66.7078 73.2061 65.1678 71.1341 65.1678C69.7761 65.1678 68.7541 65.8678 68.2641 66.7218ZM73.4721 69.1018C73.4721 70.9078 72.2821 71.9718 70.8681 71.9718C69.4821 71.9718 68.2641 70.9218 68.2641 69.1158C68.2641 67.3378 69.4821 66.2738 70.8681 66.2738C72.2821 66.2738 73.4721 67.2958 73.4721 69.1018ZM79.363 71.5098L76.955 65.2938H75.541L78.635 72.8818L77.123 76.5778H78.439L83.059 65.2938H81.743L79.363 71.5098ZM91.6981 70.4178C91.6981 71.2298 91.2921 71.9298 90.2841 71.9298C89.2761 71.9298 88.8561 71.2158 88.8421 70.3198H87.5681C87.5681 72.0278 88.6601 73.0638 90.2841 73.0638C91.8941 73.0638 92.9861 72.0418 92.9861 70.4178V63.2078H91.6981V70.4178ZM98.758 66.2458C100.074 66.2458 101.194 67.0718 101.18 68.5698H96.336C96.476 67.0718 97.512 66.2458 98.758 66.2458ZM102.342 70.5998H100.97C100.69 71.4258 99.962 72.0138 98.814 72.0138C97.512 72.0138 96.42 71.1598 96.322 69.6058H102.454C102.482 69.3398 102.496 69.1158 102.496 68.8358C102.496 66.7358 101.04 65.1678 98.814 65.1678C96.574 65.1678 95.02 66.6938 95.02 69.1158C95.02 71.5518 96.63 73.0918 98.814 73.0918C100.718 73.0918 101.95 71.9998 102.342 70.5998ZM103.702 69.1018C103.702 71.4818 105.284 73.0918 107.328 73.0918C108.742 73.0918 109.736 72.3638 110.198 71.5378V72.9658H111.486V65.2938H110.198V66.6938C109.75 65.8958 108.77 65.1678 107.342 65.1678C105.284 65.1678 103.702 66.7078 103.702 69.1018ZM110.198 69.1158C110.198 70.9218 108.994 71.9718 107.594 71.9718C106.194 71.9718 105.004 70.9078 105.004 69.1018C105.004 67.2958 106.194 66.2738 107.594 66.2738C108.994 66.2738 110.198 67.3378 110.198 69.1158ZM113.163 69.1018C113.163 71.4818 114.745 73.0918 116.803 73.0918C118.203 73.0918 119.197 72.3498 119.659 71.5238V73.1338C119.659 74.7718 118.637 75.6398 117.279 75.6398C116.019 75.6398 115.109 75.0098 114.829 74.0858H113.569C113.821 75.7238 115.263 76.7458 117.279 76.7458C119.533 76.7458 120.947 75.2478 120.947 73.1338V65.2938H119.659V66.6938C119.211 65.8678 118.203 65.1678 116.803 65.1678C114.745 65.1678 113.163 66.7078 113.163 69.1018ZM119.659 69.1158C119.659 70.9218 118.455 71.9718 117.055 71.9718C115.655 71.9718 114.465 70.9078 114.465 69.1018C114.465 67.2958 115.655 66.2738 117.055 66.2738C118.455 66.2738 119.659 67.3378 119.659 69.1158ZM126.361 66.2458C127.677 66.2458 128.797 67.0718 128.783 68.5698H123.939C124.079 67.0718 125.115 66.2458 126.361 66.2458ZM129.945 70.5998H128.573C128.293 71.4258 127.565 72.0138 126.417 72.0138C125.115 72.0138 124.023 71.1598 123.925 69.6058H130.057C130.085 69.3398 130.099 69.1158 130.099 68.8358C130.099 66.7358 128.643 65.1678 126.417 65.1678C124.177 65.1678 122.623 66.6938 122.623 69.1158C122.623 71.5518 124.233 73.0918 126.417 73.0918C128.321 73.0918 129.553 71.9998 129.945 70.5998ZM133.055 68.7938C133.055 67.0158 133.979 66.4698 135.197 66.4698H135.533V65.1538C134.315 65.1538 133.489 65.6858 133.055 66.5398V65.2938H131.781V72.9658H133.055V68.7938ZM140.47 68.3738H146.056V67.2958H140.47V68.3738ZM151.816 72.8538H158.55V71.7898H153.734C155.54 70.3198 158.256 68.1778 158.256 65.6578C158.256 63.7818 157.024 62.6618 155.12 62.6618C153.3 62.6618 151.942 63.7818 151.858 65.9378H153.09C153.146 64.6638 153.818 63.7538 155.134 63.7538C156.506 63.7538 156.996 64.5938 156.996 65.7138C156.996 67.7858 154.476 69.8018 151.816 71.9438V72.8538ZM160.022 67.7998C160.022 70.7398 160.75 72.9658 163.55 72.9658C166.336 72.9658 167.064 70.7398 167.064 67.7998C167.064 64.9018 166.336 62.6898 163.55 62.6898C160.75 62.6898 160.022 64.9018 160.022 67.7998ZM165.804 67.7998C165.804 69.9838 165.538 71.8038 163.55 71.8038C161.548 71.8038 161.282 69.9838 161.282 67.7998C161.282 65.6998 161.548 63.8518 163.55 63.8518C165.538 63.8518 165.804 65.6998 165.804 67.7998ZM168.659 72.8538H175.393V71.7898H170.577C172.383 70.3198 175.099 68.1778 175.099 65.6578C175.099 63.7818 173.867 62.6618 171.963 62.6618C170.143 62.6618 168.785 63.7818 168.701 65.9378H169.933C169.989 64.6638 170.661 63.7538 171.977 63.7538C173.349 63.7538 173.839 64.5938 173.839 65.7138C173.839 67.7858 171.319 69.8018 168.659 71.9438V72.8538ZM176.866 67.7998C176.866 70.7398 177.594 72.9658 180.394 72.9658C183.18 72.9658 183.908 70.7398 183.908 67.7998C183.908 64.9018 183.18 62.6898 180.394 62.6898C177.594 62.6898 176.866 64.9018 176.866 67.7998ZM182.648 67.7998C182.648 69.9838 182.382 71.8038 180.394 71.8038C178.392 71.8038 178.126 69.9838 178.126 67.7998C178.126 65.6998 178.392 63.8518 180.394 63.8518C182.382 63.8518 182.648 65.6998 182.648 67.7998Z" fill="#2B2B2B"/>
<defs>
<linearGradient id="paint0_linear" x1="10.1571" y1="31.6147" x2="47" y2="31.6147" gradientUnits="userSpaceOnUse">
<stop offset="0.0056" stop-color="#155799"/>
<stop offset="0.2487" stop-color="#15628E"/>
<stop offset="0.6712" stop-color="#157E72"/>
<stop offset="1" stop-color="#159957"/>
</linearGradient>
<linearGradient id="paint1_linear" x1="5.17508e-06" y1="19.4043" x2="32.7373" y2="19.4043" gradientUnits="userSpaceOnUse">
<stop offset="0.0056" stop-color="#155799"/>
<stop offset="0.2487" stop-color="#15628E"/>
<stop offset="0.6712" stop-color="#157E72"/>
<stop offset="1" stop-color="#159957"/>
</linearGradient>
<linearGradient id="paint2_linear" x1="10.3197" y1="29.4021" x2="26.842" y2="29.4021" gradientUnits="userSpaceOnUse">
<stop offset="0.0056" stop-color="#155799"/>
<stop offset="0.2487" stop-color="#15628E"/>
<stop offset="0.6712" stop-color="#157E72"/>
<stop offset="1" stop-color="#159957"/>
</linearGradient>
</defs>
</svg>
