<svg width="500" height="435" viewBox="0 0 500 435" fill="none" xmlns="http://www.w3.org/2000/svg">
<path d="M494.683 275.586C482.486 235.323 451.505 205.921 414.248 194.018L414.261 194.012C394.622 185.838 401.264 161.31 401.264 161.31L401.241 161.325C410.916 142.782 413.657 120.601 407.112 99.0035C393.848 55.2317 347.606 30.4915 303.83 43.7504C292.693 47.1296 282.798 52.6572 274.438 59.723C274.435 59.7201 274.425 59.7036 274.425 59.7036C231.875 90.5988 219.153 50.1809 219.153 50.1809C207.843 12.8454 168.41 -8.25867 131.081 3.05134C93.7539 14.3594 72.6557 53.7985 83.9598 91.1301C86.8048 100.523 91.4353 108.883 97.3579 115.965H97.352C107.863 135.449 94.2414 142.46 87.8829 144.586C86.8944 144.855 85.9029 145.101 84.9104 145.401C21.7265 164.541 -13.9763 231.29 5.16726 294.477C24.3069 357.667 91.0471 393.375 154.231 374.233C166.283 370.582 177.332 365.187 187.199 358.424V358.434C187.199 358.434 239.198 323.872 271.996 375.632L271.999 375.626C300.538 422.218 357.85 445.619 412.588 429.037C477.625 409.332 514.385 340.633 494.683 275.586Z" fill="#159957" fill-opacity="0.1"/>
<path d="M60.1576 105.264C56.9516 101.672 28.2893 84.7123 16.3945 102.693C0.217631 127.127 7.15309 164.595 24.7797 151.863C52.2423 132.015 86.5051 134.782 60.1576 105.264Z" fill="#159957" fill-opacity="0.1"/>
<g filter="url(#filter0_d)">
<path fill-rule="evenodd" clip-rule="evenodd" d="M90 115C84.4772 115 80 119.477 80 125V162.721V164.652V174.652H89.975C89.9834 174.652 89.9917 174.652 90 174.652H169.42C169.428 174.652 169.436 174.652 169.445 174.652H179.42V164.652V162.721V125C179.42 119.477 174.943 115 169.42 115H90Z" fill="white"/>
<path d="M115.934 144.191H117.137C117.71 144.191 118.134 144.047 118.41 143.761C118.686 143.474 118.824 143.094 118.824 142.62C118.824 142.162 118.686 141.805 118.41 141.55C118.139 141.295 117.764 141.167 117.285 141.167C116.853 141.167 116.491 141.287 116.199 141.527C115.908 141.761 115.762 142.068 115.762 142.448H113.504C113.504 141.855 113.663 141.323 113.98 140.855C114.303 140.381 114.751 140.011 115.324 139.745C115.902 139.48 116.538 139.347 117.23 139.347C118.434 139.347 119.376 139.636 120.059 140.214C120.741 140.787 121.082 141.579 121.082 142.589C121.082 143.11 120.923 143.589 120.605 144.027C120.288 144.464 119.871 144.8 119.355 145.034C119.996 145.264 120.473 145.607 120.785 146.066C121.103 146.524 121.262 147.066 121.262 147.691C121.262 148.701 120.892 149.511 120.152 150.12C119.418 150.73 118.444 151.034 117.23 151.034C116.095 151.034 115.165 150.735 114.441 150.136C113.723 149.537 113.363 148.745 113.363 147.761H115.621C115.621 148.188 115.78 148.537 116.098 148.808C116.421 149.079 116.816 149.214 117.285 149.214C117.822 149.214 118.241 149.073 118.543 148.792C118.85 148.506 119.004 148.128 119.004 147.659C119.004 146.524 118.379 145.956 117.129 145.956H115.934V144.191ZM130.48 146.175C130.48 147.748 130.155 148.951 129.504 149.784C128.853 150.618 127.9 151.034 126.645 151.034C125.405 151.034 124.457 150.626 123.801 149.808C123.145 148.99 122.809 147.818 122.793 146.292V144.198C122.793 142.61 123.121 141.404 123.777 140.581C124.439 139.758 125.389 139.347 126.629 139.347C127.868 139.347 128.816 139.756 129.473 140.573C130.129 141.386 130.465 142.555 130.48 144.081V146.175ZM128.223 143.878C128.223 142.935 128.092 142.251 127.832 141.823C127.577 141.391 127.176 141.175 126.629 141.175C126.098 141.175 125.704 141.381 125.449 141.792C125.199 142.198 125.066 142.836 125.051 143.706V146.472C125.051 147.399 125.176 148.089 125.426 148.542C125.681 148.99 126.087 149.214 126.645 149.214C127.197 149.214 127.595 148.998 127.84 148.566C128.085 148.133 128.212 147.472 128.223 146.581V143.878ZM138.914 143.695C138.914 144.101 138.775 144.443 138.498 144.72C138.221 144.997 137.887 145.136 137.496 145.136C137.102 145.136 136.764 144.997 136.482 144.72C136.201 144.439 136.061 144.097 136.061 143.695C136.061 143.292 136.203 142.948 136.488 142.663C136.773 142.374 137.109 142.23 137.496 142.23C137.883 142.23 138.215 142.374 138.492 142.663C138.773 142.948 138.914 143.292 138.914 143.695ZM136.588 143.695C136.588 143.956 136.674 144.173 136.846 144.345C137.021 144.517 137.238 144.603 137.496 144.603C137.754 144.603 137.967 144.517 138.135 144.345C138.303 144.173 138.387 143.956 138.387 143.695C138.387 143.425 138.303 143.202 138.135 143.027C137.967 142.851 137.754 142.763 137.496 142.763C137.242 142.763 137.027 142.851 136.852 143.027C136.676 143.202 136.588 143.425 136.588 143.695ZM146.877 148.218C146.779 149.116 146.457 149.804 145.91 150.28C145.367 150.757 144.643 150.995 143.736 150.995C143.104 150.995 142.543 150.837 142.055 150.521C141.57 150.204 141.195 149.757 140.93 149.179C140.664 148.597 140.529 147.933 140.525 147.187V146.079C140.525 145.321 140.658 144.65 140.924 144.064C141.189 143.478 141.57 143.027 142.066 142.71C142.566 142.39 143.141 142.23 143.789 142.23C144.703 142.23 145.424 142.478 145.951 142.974C146.482 143.466 146.791 144.148 146.877 145.019H146.15C145.971 143.57 145.184 142.845 143.789 142.845C143.016 142.845 142.398 143.134 141.938 143.712C141.48 144.29 141.252 145.089 141.252 146.109V147.152C141.252 148.136 141.475 148.921 141.92 149.507C142.369 150.093 142.975 150.386 143.736 150.386C144.49 150.386 145.059 150.206 145.441 149.847C145.824 149.484 146.061 148.941 146.15 148.218H146.877Z" fill="#2B2B2B"/>
<path fill-rule="evenodd" clip-rule="evenodd" d="M169.42 174.652H179.42V184.652V185.588V204.42C179.42 209.942 174.943 214.42 169.42 214.42H90C84.4772 214.42 80 209.943 80 204.42V185.588V184.652V174.652H90H169.42Z" fill="#F5F6F8"/>
<path d="M105.977 182.281H103.317V189.617H101.846V182.281H99.2097V181.086H105.977V182.281ZM109.229 189.734C108.327 189.734 107.594 189.451 107.032 188.885C106.473 188.314 106.194 187.556 106.194 186.611V186.435C106.194 185.802 106.315 185.238 106.557 184.742C106.803 184.242 107.147 183.853 107.589 183.576C108.03 183.299 108.522 183.16 109.065 183.16C109.928 183.16 110.594 183.435 111.063 183.986C111.536 184.537 111.772 185.316 111.772 186.324V186.898H107.63C107.673 187.422 107.846 187.836 108.151 188.14C108.46 188.445 108.846 188.597 109.311 188.597C109.964 188.597 110.495 188.334 110.905 187.806L111.673 188.539C111.419 188.918 111.079 189.213 110.653 189.424C110.231 189.631 109.757 189.734 109.229 189.734ZM109.059 184.302C108.669 184.302 108.352 184.439 108.11 184.713C107.872 184.986 107.719 185.367 107.653 185.855H110.366V185.75C110.335 185.273 110.208 184.914 109.985 184.672C109.762 184.426 109.454 184.302 109.059 184.302ZM114.221 183.277L114.262 183.939C114.708 183.42 115.317 183.16 116.091 183.16C116.938 183.16 117.518 183.484 117.831 184.133C118.292 183.484 118.94 183.16 119.776 183.16C120.475 183.16 120.995 183.353 121.335 183.74C121.678 184.127 121.854 184.697 121.862 185.451V189.617H120.438V185.492C120.438 185.09 120.35 184.795 120.175 184.607C119.999 184.42 119.708 184.326 119.302 184.326C118.977 184.326 118.712 184.414 118.505 184.59C118.302 184.761 118.159 184.988 118.077 185.269L118.083 189.617H116.659V185.445C116.639 184.699 116.259 184.326 115.516 184.326C114.946 184.326 114.542 184.558 114.303 185.023V189.617H112.88V183.277H114.221ZM128.876 186.511C128.876 187.492 128.653 188.275 128.208 188.861C127.762 189.443 127.165 189.734 126.415 189.734C125.719 189.734 125.163 189.506 124.745 189.049V192.054H123.321V183.277H124.634L124.692 183.922C125.11 183.414 125.678 183.16 126.397 183.16C127.171 183.16 127.776 183.449 128.214 184.027C128.655 184.601 128.876 185.4 128.876 186.424V186.511ZM127.458 186.388C127.458 185.756 127.331 185.254 127.077 184.883C126.827 184.511 126.468 184.326 125.999 184.326C125.417 184.326 124.999 184.566 124.745 185.047V187.859C125.003 188.351 125.425 188.597 126.01 188.597C126.464 188.597 126.817 188.416 127.071 188.052C127.329 187.685 127.458 187.131 127.458 186.388ZM132.878 189.734C131.975 189.734 131.243 189.451 130.68 188.885C130.122 188.314 129.843 187.556 129.843 186.611V186.435C129.843 185.802 129.964 185.238 130.206 184.742C130.452 184.242 130.796 183.853 131.237 183.576C131.678 183.299 132.171 183.16 132.714 183.16C133.577 183.16 134.243 183.435 134.712 183.986C135.184 184.537 135.421 185.316 135.421 186.324V186.898H131.278C131.321 187.422 131.495 187.836 131.8 188.14C132.108 188.445 132.495 188.597 132.96 188.597C133.612 188.597 134.143 188.334 134.553 187.806L135.321 188.539C135.067 188.918 134.727 189.213 134.302 189.424C133.88 189.631 133.405 189.734 132.878 189.734ZM132.708 184.302C132.317 184.302 132.001 184.439 131.759 184.713C131.52 184.986 131.368 185.367 131.302 185.855H134.014V185.75C133.983 185.273 133.856 184.914 133.634 184.672C133.411 184.426 133.102 184.302 132.708 184.302ZM139.85 184.578C139.663 184.547 139.469 184.531 139.27 184.531C138.618 184.531 138.178 184.781 137.952 185.281V189.617H136.528V183.277H137.887L137.923 183.986C138.266 183.435 138.743 183.16 139.352 183.16C139.555 183.16 139.723 183.187 139.856 183.242L139.85 184.578ZM144.362 189.617C144.3 189.496 144.245 189.299 144.198 189.025C143.745 189.498 143.19 189.734 142.534 189.734C141.897 189.734 141.378 189.552 140.975 189.189C140.573 188.826 140.372 188.377 140.372 187.842C140.372 187.166 140.622 186.648 141.122 186.289C141.626 185.926 142.344 185.744 143.278 185.744H144.151V185.328C144.151 185 144.059 184.738 143.876 184.543C143.692 184.344 143.413 184.244 143.038 184.244C142.714 184.244 142.448 184.326 142.241 184.49C142.034 184.65 141.93 184.855 141.93 185.105H140.507C140.507 184.758 140.622 184.433 140.852 184.133C141.083 183.828 141.395 183.59 141.79 183.418C142.188 183.246 142.632 183.16 143.12 183.16C143.862 183.16 144.454 183.347 144.895 183.722C145.337 184.094 145.563 184.617 145.575 185.293V188.152C145.575 188.722 145.655 189.177 145.815 189.517V189.617H144.362ZM142.798 188.592C143.079 188.592 143.343 188.523 143.589 188.386C143.839 188.25 144.026 188.066 144.151 187.836V186.64H143.384C142.856 186.64 142.46 186.732 142.194 186.916C141.928 187.099 141.796 187.359 141.796 187.695C141.796 187.969 141.885 188.187 142.065 188.351C142.249 188.511 142.493 188.592 142.798 188.592ZM148.85 181.736V183.277H149.969V184.332H148.85V187.871C148.85 188.113 148.897 188.289 148.991 188.398C149.089 188.504 149.26 188.556 149.507 188.556C149.671 188.556 149.837 188.537 150.005 188.498V189.599C149.68 189.689 149.368 189.734 149.067 189.734C147.973 189.734 147.427 189.131 147.427 187.924V184.332H146.384V183.277H147.427V181.736H148.85ZM154.903 188.996C154.485 189.488 153.891 189.734 153.122 189.734C152.434 189.734 151.913 189.533 151.557 189.131C151.206 188.728 151.03 188.146 151.03 187.385V183.277H152.454V187.367C152.454 188.172 152.788 188.574 153.456 188.574C154.147 188.574 154.614 188.326 154.856 187.83V183.277H156.28V189.617H154.938L154.903 188.996ZM161.05 184.578C160.862 184.547 160.669 184.531 160.469 184.531C159.817 184.531 159.378 184.781 159.151 185.281V189.617H157.727V183.277H159.087L159.122 183.986C159.466 183.435 159.942 183.16 160.552 183.16C160.755 183.16 160.923 183.187 161.055 183.242L161.05 184.578Z" fill="black"/>
<path d="M111.506 204.669H105.916V203.89L108.869 200.608C109.307 200.112 109.607 199.71 109.771 199.401C109.939 199.089 110.023 198.767 110.023 198.435C110.023 197.989 109.889 197.624 109.619 197.339C109.35 197.054 108.99 196.911 108.541 196.911C108.002 196.911 107.582 197.065 107.281 197.374C106.984 197.679 106.836 198.104 106.836 198.651H105.752C105.752 197.866 106.004 197.231 106.508 196.747C107.016 196.263 107.693 196.02 108.541 196.02C109.334 196.02 109.961 196.229 110.422 196.647C110.883 197.061 111.113 197.614 111.113 198.306C111.113 199.145 110.578 200.145 109.508 201.306L107.223 203.784H111.506V204.669ZM118.004 201.03C118.004 202.3 117.787 203.243 117.354 203.86C116.92 204.477 116.242 204.786 115.32 204.786C114.41 204.786 113.736 204.485 113.299 203.884C112.861 203.278 112.635 202.376 112.619 201.177V199.729C112.619 198.476 112.836 197.544 113.27 196.935C113.703 196.325 114.383 196.02 115.309 196.02C116.227 196.02 116.902 196.315 117.336 196.905C117.77 197.491 117.992 198.397 118.004 199.624V201.03ZM116.92 199.548C116.92 198.63 116.791 197.962 116.533 197.544C116.275 197.122 115.867 196.911 115.309 196.911C114.754 196.911 114.35 197.12 114.096 197.538C113.842 197.956 113.711 198.599 113.703 199.466V201.2C113.703 202.122 113.836 202.804 114.102 203.245C114.371 203.683 114.777 203.901 115.32 203.901C115.855 203.901 116.252 203.694 116.51 203.28C116.771 202.866 116.908 202.214 116.92 201.323V199.548ZM124.736 201.487H121.877V200.602H124.736V201.487Z" fill="#757475"/>
<path d="M130.238 199.876H131.053C131.564 199.868 131.967 199.733 132.26 199.472C132.553 199.21 132.699 198.856 132.699 198.411C132.699 197.411 132.201 196.911 131.205 196.911C130.736 196.911 130.361 197.046 130.08 197.315C129.803 197.581 129.664 197.935 129.664 198.376H128.58C128.58 197.7 128.826 197.14 129.318 196.694C129.814 196.245 130.443 196.02 131.205 196.02C132.01 196.02 132.641 196.233 133.098 196.659C133.555 197.085 133.783 197.677 133.783 198.435C133.783 198.806 133.662 199.165 133.42 199.513C133.182 199.86 132.855 200.12 132.441 200.292C132.91 200.44 133.271 200.686 133.525 201.03C133.783 201.374 133.912 201.794 133.912 202.29C133.912 203.056 133.662 203.663 133.162 204.112C132.662 204.561 132.012 204.786 131.211 204.786C130.41 204.786 129.758 204.569 129.254 204.136C128.754 203.702 128.504 203.13 128.504 202.419H129.594C129.594 202.868 129.74 203.227 130.033 203.497C130.326 203.767 130.719 203.901 131.211 203.901C131.734 203.901 132.135 203.765 132.412 203.491C132.689 203.218 132.828 202.825 132.828 202.313C132.828 201.817 132.676 201.436 132.371 201.171C132.066 200.905 131.627 200.768 131.053 200.761H130.238V199.876ZM140.75 201.03C140.75 202.3 140.533 203.243 140.1 203.86C139.666 204.477 138.988 204.786 138.066 204.786C137.156 204.786 136.482 204.485 136.045 203.884C135.607 203.278 135.381 202.376 135.365 201.177V199.729C135.365 198.476 135.582 197.544 136.016 196.935C136.449 196.325 137.129 196.02 138.055 196.02C138.973 196.02 139.648 196.315 140.082 196.905C140.516 197.491 140.738 198.397 140.75 199.624V201.03ZM139.666 199.548C139.666 198.63 139.537 197.962 139.279 197.544C139.021 197.122 138.613 196.911 138.055 196.911C137.5 196.911 137.096 197.12 136.842 197.538C136.588 197.956 136.457 198.599 136.449 199.466V201.2C136.449 202.122 136.582 202.804 136.848 203.245C137.117 203.683 137.523 203.901 138.066 203.901C138.602 203.901 138.998 203.694 139.256 203.28C139.518 202.866 139.654 202.214 139.666 201.323V199.548ZM142.191 197.544C142.191 197.138 142.336 196.782 142.625 196.477C142.918 196.173 143.271 196.02 143.686 196.02C144.092 196.02 144.438 196.173 144.723 196.477C145.012 196.778 145.156 197.134 145.156 197.544C145.156 197.958 145.012 198.311 144.723 198.604C144.438 198.897 144.092 199.044 143.686 199.044C143.275 199.044 142.924 198.897 142.631 198.604C142.338 198.311 142.191 197.958 142.191 197.544ZM143.686 198.294C143.896 198.294 144.074 198.226 144.219 198.089C144.363 197.948 144.436 197.767 144.436 197.544C144.436 197.317 144.363 197.132 144.219 196.987C144.074 196.839 143.896 196.765 143.686 196.765C143.471 196.765 143.289 196.843 143.141 196.999C142.996 197.151 142.924 197.333 142.924 197.544C142.924 197.755 142.996 197.933 143.141 198.077C143.289 198.222 143.471 198.294 143.686 198.294ZM153.184 201.962C153.078 202.864 152.744 203.561 152.182 204.054C151.623 204.542 150.879 204.786 149.949 204.786C148.941 204.786 148.133 204.425 147.523 203.702C146.918 202.979 146.615 202.013 146.615 200.802V199.981C146.615 199.188 146.756 198.491 147.037 197.89C147.322 197.288 147.725 196.827 148.244 196.507C148.764 196.183 149.365 196.02 150.049 196.02C150.955 196.02 151.682 196.274 152.229 196.782C152.775 197.286 153.094 197.985 153.184 198.88H152.053C151.955 198.2 151.742 197.708 151.414 197.403C151.09 197.099 150.635 196.946 150.049 196.946C149.33 196.946 148.766 197.212 148.355 197.743C147.949 198.274 147.746 199.03 147.746 200.011V200.837C147.746 201.763 147.939 202.499 148.326 203.046C148.713 203.593 149.254 203.866 149.949 203.866C150.574 203.866 151.053 203.726 151.385 203.444C151.721 203.159 151.943 202.665 152.053 201.962H153.184Z" fill="#808080"/>
</g>
<g filter="url(#filter1_d)">
<path fill-rule="evenodd" clip-rule="evenodd" d="M215.076 115C209.554 115 205.076 119.477 205.076 125V162.721V164.652V174.652H215.047C215.057 174.652 215.067 174.652 215.076 174.652H294.496C294.506 174.652 294.516 174.652 294.525 174.652H304.496V164.652V162.721V125C304.496 119.477 300.019 115 294.496 115H215.076Z" fill="white"/>
<path d="M247.121 146.597H248.41V148.417H247.121V150.878H244.864V148.417H240.199L240.098 146.995L244.84 139.503H247.121V146.597ZM242.348 146.597H244.864V142.581L244.715 142.839L242.348 146.597ZM257.285 146.175C257.285 147.748 256.96 148.951 256.309 149.784C255.658 150.618 254.705 151.034 253.449 151.034C252.21 151.034 251.262 150.626 250.606 149.808C249.949 148.99 249.614 147.818 249.598 146.292V144.198C249.598 142.61 249.926 141.404 250.582 140.581C251.244 139.758 252.194 139.347 253.434 139.347C254.673 139.347 255.621 139.756 256.278 140.573C256.934 141.386 257.27 142.555 257.285 144.081V146.175ZM255.028 143.878C255.028 142.935 254.897 142.251 254.637 141.823C254.382 141.391 253.981 141.175 253.434 141.175C252.903 141.175 252.509 141.381 252.254 141.792C252.004 142.198 251.871 142.836 251.856 143.706V146.472C251.856 147.399 251.981 148.089 252.231 148.542C252.486 148.99 252.892 149.214 253.449 149.214C254.002 149.214 254.4 148.998 254.645 148.566C254.89 148.133 255.017 147.472 255.028 146.581V143.878ZM262.666 143.987C262.666 143.48 262.823 143.06 263.135 142.728C263.451 142.392 263.852 142.224 264.336 142.224C264.821 142.224 265.219 142.392 265.531 142.728C265.848 143.06 266.006 143.491 266.006 144.023V144.439C266.006 144.939 265.85 145.357 265.537 145.693C265.229 146.025 264.832 146.191 264.348 146.191C263.867 146.191 263.467 146.027 263.147 145.698C262.826 145.37 262.666 144.937 262.666 144.398V143.987ZM263.235 144.439C263.235 144.802 263.334 145.101 263.533 145.335C263.737 145.57 264.008 145.687 264.348 145.687C264.68 145.687 264.944 145.57 265.139 145.335C265.338 145.097 265.438 144.79 265.438 144.415V143.987C265.438 143.624 265.336 143.325 265.133 143.091C264.93 142.853 264.664 142.734 264.336 142.734C264.012 142.734 263.746 142.851 263.539 143.085C263.336 143.32 263.235 143.632 263.235 144.023V144.439ZM266.961 148.786C266.961 148.279 267.117 147.859 267.43 147.527C267.746 147.195 268.145 147.029 268.625 147.029C269.106 147.029 269.504 147.195 269.821 147.527C270.141 147.855 270.301 148.288 270.301 148.827V149.243C270.301 149.751 270.143 150.171 269.826 150.503C269.514 150.835 269.117 151.001 268.637 151.001C268.156 151.001 267.756 150.837 267.436 150.509C267.119 150.177 266.961 149.745 266.961 149.214V148.786ZM267.524 149.243C267.524 149.611 267.623 149.911 267.823 150.146C268.026 150.38 268.297 150.497 268.637 150.497C268.973 150.497 269.239 150.38 269.434 150.146C269.633 149.907 269.733 149.597 269.733 149.214V148.786C269.733 148.411 269.631 148.111 269.428 147.884C269.229 147.654 268.961 147.538 268.625 147.538C268.297 147.538 268.031 147.654 267.828 147.884C267.625 148.114 267.524 148.423 267.524 148.81V149.243ZM264.571 150.169L264.131 149.888L268.297 143.22L268.737 143.501L264.571 150.169Z" fill="#2B2B2B"/>
<path fill-rule="evenodd" clip-rule="evenodd" d="M294.496 174.652H304.496V184.652V185.588V204.42C304.496 209.943 300.019 214.42 294.496 214.42H215.076C209.554 214.42 205.076 209.943 205.076 204.42V185.588V184.652V174.652H215.076H294.496Z" fill="#F5F6F8"/>
<path d="M224.761 186.931L223.794 187.957V190.617H222.312V182.086H223.794V186.088L224.615 185.074L227.111 182.086H228.904L225.734 185.865L229.085 190.617H227.328L224.761 186.931ZM232.384 190.734C231.482 190.734 230.75 190.451 230.187 189.885C229.628 189.314 229.349 188.556 229.349 187.611V187.435C229.349 186.802 229.47 186.238 229.712 185.742C229.958 185.242 230.302 184.853 230.744 184.576C231.185 184.299 231.677 184.16 232.22 184.16C233.083 184.16 233.75 184.435 234.218 184.986C234.691 185.537 234.927 186.316 234.927 187.324V187.898H230.785C230.828 188.422 231.001 188.836 231.306 189.14C231.615 189.445 232.001 189.597 232.466 189.597C233.119 189.597 233.65 189.334 234.06 188.806L234.828 189.539C234.574 189.918 234.234 190.213 233.808 190.424C233.386 190.631 232.912 190.734 232.384 190.734ZM232.214 185.302C231.824 185.302 231.507 185.439 231.265 185.713C231.027 185.986 230.875 186.367 230.808 186.855H233.521V186.75C233.49 186.273 233.363 185.914 233.14 185.672C232.917 185.426 232.609 185.302 232.214 185.302ZM237.552 190.617H236.128V181.617H237.552V190.617ZM241.9 190.734C240.998 190.734 240.265 190.451 239.703 189.885C239.144 189.314 238.865 188.556 238.865 187.611V187.435C238.865 186.802 238.986 186.238 239.228 185.742C239.474 185.242 239.818 184.853 240.259 184.576C240.701 184.299 241.193 184.16 241.736 184.16C242.599 184.16 243.265 184.435 243.734 184.986C244.207 185.537 244.443 186.316 244.443 187.324V187.898H240.3C240.343 188.422 240.517 188.836 240.822 189.14C241.13 189.445 241.517 189.597 241.982 189.597C242.634 189.597 243.166 189.334 243.576 188.806L244.343 189.539C244.089 189.918 243.75 190.213 243.324 190.424C242.902 190.631 242.427 190.734 241.9 190.734ZM241.73 185.302C241.339 185.302 241.023 185.439 240.781 185.713C240.542 185.986 240.39 186.367 240.324 186.855H243.037V186.75C243.005 186.273 242.878 185.914 242.656 185.672C242.433 185.426 242.125 185.302 241.73 185.302ZM246.892 184.277L246.933 184.939C247.378 184.42 247.988 184.16 248.761 184.16C249.609 184.16 250.189 184.484 250.501 185.133C250.962 184.484 251.611 184.16 252.447 184.16C253.146 184.16 253.666 184.353 254.005 184.74C254.349 185.127 254.525 185.697 254.533 186.451V190.617H253.109V186.492C253.109 186.09 253.021 185.795 252.845 185.607C252.669 185.42 252.378 185.326 251.972 185.326C251.648 185.326 251.382 185.414 251.175 185.59C250.972 185.761 250.83 185.988 250.748 186.269L250.753 190.617H249.33V186.445C249.31 185.699 248.929 185.326 248.187 185.326C247.617 185.326 247.212 185.558 246.974 186.023V190.617H245.55V184.277H246.892ZM261.558 187.511C261.558 188.496 261.337 189.279 260.896 189.861C260.458 190.443 259.855 190.734 259.085 190.734C258.343 190.734 257.765 190.467 257.351 189.931L257.281 190.617H255.992V181.617H257.416V184.886C257.826 184.402 258.378 184.16 259.074 184.16C259.847 184.16 260.455 184.447 260.896 185.021C261.337 185.595 261.558 186.398 261.558 187.429V187.511ZM260.134 187.388C260.134 186.701 260.013 186.185 259.771 185.842C259.529 185.498 259.177 185.326 258.716 185.326C258.099 185.326 257.666 185.595 257.416 186.135V188.748C257.669 189.299 258.107 189.574 258.728 189.574C259.173 189.574 259.517 189.408 259.759 189.076C260.001 188.744 260.126 188.242 260.134 187.57V187.388ZM266.544 190.617C266.482 190.496 266.427 190.299 266.38 190.025C265.927 190.498 265.373 190.734 264.716 190.734C264.08 190.734 263.56 190.552 263.158 190.189C262.755 189.826 262.554 189.377 262.554 188.842C262.554 188.166 262.804 187.648 263.304 187.289C263.808 186.926 264.527 186.744 265.46 186.744H266.333V186.328C266.333 186 266.242 185.738 266.058 185.543C265.875 185.344 265.595 185.244 265.22 185.244C264.896 185.244 264.63 185.326 264.423 185.49C264.216 185.65 264.113 185.855 264.113 186.105H262.689C262.689 185.758 262.804 185.433 263.035 185.133C263.265 184.828 263.578 184.59 263.972 184.418C264.371 184.246 264.814 184.16 265.302 184.16C266.044 184.16 266.636 184.347 267.078 184.722C267.519 185.094 267.746 185.617 267.757 186.293V189.152C267.757 189.722 267.837 190.177 267.998 190.517V190.617H266.544ZM264.98 189.592C265.261 189.592 265.525 189.523 265.771 189.386C266.021 189.25 266.208 189.066 266.333 188.836V187.64H265.566C265.039 187.64 264.642 187.732 264.376 187.916C264.111 188.099 263.978 188.359 263.978 188.695C263.978 188.969 264.068 189.187 264.248 189.351C264.431 189.511 264.675 189.592 264.98 189.592ZM274.8 187.511C274.8 188.492 274.578 189.275 274.132 189.861C273.687 190.443 273.089 190.734 272.339 190.734C271.644 190.734 271.087 190.506 270.669 190.049V193.054H269.246V184.277H270.558L270.617 184.922C271.035 184.414 271.603 184.16 272.322 184.16C273.095 184.16 273.701 184.449 274.138 185.027C274.58 185.601 274.8 186.4 274.8 187.424V187.511ZM273.382 187.388C273.382 186.756 273.255 186.254 273.001 185.883C272.751 185.511 272.392 185.326 271.923 185.326C271.341 185.326 270.923 185.566 270.669 186.047V188.859C270.927 189.351 271.349 189.597 271.935 189.597C272.388 189.597 272.742 189.416 272.996 189.052C273.253 188.685 273.382 188.131 273.382 187.388ZM279.798 190.617C279.736 190.496 279.681 190.299 279.634 190.025C279.181 190.498 278.626 190.734 277.97 190.734C277.333 190.734 276.814 190.552 276.412 190.189C276.009 189.826 275.808 189.377 275.808 188.842C275.808 188.166 276.058 187.648 276.558 187.289C277.062 186.926 277.781 186.744 278.714 186.744H279.587V186.328C279.587 186 279.496 185.738 279.312 185.543C279.128 185.344 278.849 185.244 278.474 185.244C278.15 185.244 277.884 185.326 277.677 185.49C277.47 185.65 277.367 185.855 277.367 186.105H275.943C275.943 185.758 276.058 185.433 276.289 185.133C276.519 184.828 276.832 184.59 277.226 184.418C277.625 184.246 278.068 184.16 278.556 184.16C279.298 184.16 279.89 184.347 280.332 184.722C280.773 185.094 281 185.617 281.011 186.293V189.152C281.011 189.722 281.091 190.177 281.251 190.517V190.617H279.798ZM278.234 189.592C278.515 189.592 278.779 189.523 279.025 189.386C279.275 189.25 279.462 189.066 279.587 188.836V187.64H278.82C278.292 187.64 277.896 187.732 277.63 187.916C277.365 188.099 277.232 188.359 277.232 188.695C277.232 188.969 277.322 189.187 277.501 189.351C277.685 189.511 277.929 189.592 278.234 189.592ZM283.824 184.277L283.865 185.01C284.333 184.443 284.949 184.16 285.71 184.16C287.031 184.16 287.703 184.916 287.726 186.427V190.617H286.302V186.51C286.302 186.107 286.214 185.81 286.039 185.619C285.867 185.424 285.583 185.326 285.189 185.326C284.615 185.326 284.187 185.586 283.906 186.105V190.617H282.482V184.277H283.824Z" fill="black"/>
<path d="M236.668 205.524H235.578V198.299L233.393 199.102V198.118L236.498 196.952H236.668V205.524ZM245.193 201.885C245.193 203.155 244.977 204.098 244.543 204.716C244.109 205.333 243.432 205.641 242.51 205.641C241.6 205.641 240.926 205.341 240.488 204.739C240.051 204.133 239.824 203.231 239.809 202.032V200.585C239.809 199.331 240.025 198.399 240.459 197.79C240.893 197.18 241.572 196.876 242.498 196.876C243.416 196.876 244.092 197.171 244.525 197.76C244.959 198.346 245.182 199.253 245.193 200.479V201.885ZM244.109 200.403C244.109 199.485 243.98 198.817 243.723 198.399C243.465 197.977 243.057 197.766 242.498 197.766C241.943 197.766 241.539 197.975 241.285 198.393C241.031 198.811 240.9 199.454 240.893 200.321V202.055C240.893 202.977 241.025 203.659 241.291 204.1C241.561 204.538 241.967 204.757 242.51 204.757C243.045 204.757 243.441 204.549 243.699 204.135C243.961 203.721 244.098 203.069 244.109 202.178V200.403ZM251.926 202.342H249.066V201.458H251.926V202.342ZM256.35 201.247L256.783 196.993H261.154V197.995H257.703L257.445 200.321C257.863 200.075 258.338 199.952 258.869 199.952C259.646 199.952 260.264 200.21 260.721 200.725C261.178 201.237 261.406 201.93 261.406 202.805C261.406 203.684 261.168 204.378 260.691 204.885C260.219 205.389 259.557 205.641 258.705 205.641C257.951 205.641 257.336 205.432 256.859 205.014C256.383 204.596 256.111 204.018 256.045 203.28H257.07C257.137 203.768 257.311 204.137 257.592 204.387C257.873 204.633 258.244 204.757 258.705 204.757C259.209 204.757 259.604 204.585 259.889 204.241C260.178 203.897 260.322 203.423 260.322 202.817C260.322 202.247 260.166 201.79 259.854 201.446C259.545 201.098 259.133 200.924 258.617 200.924C258.145 200.924 257.773 201.028 257.504 201.235L257.217 201.469L256.35 201.247ZM267.939 201.885C267.939 203.155 267.723 204.098 267.289 204.716C266.855 205.333 266.178 205.641 265.256 205.641C264.346 205.641 263.672 205.341 263.234 204.739C262.797 204.133 262.57 203.231 262.555 202.032V200.585C262.555 199.331 262.771 198.399 263.205 197.79C263.639 197.18 264.318 196.876 265.244 196.876C266.162 196.876 266.838 197.171 267.271 197.76C267.705 198.346 267.928 199.253 267.939 200.479V201.885ZM266.855 200.403C266.855 199.485 266.727 198.817 266.469 198.399C266.211 197.977 265.803 197.766 265.244 197.766C264.689 197.766 264.285 197.975 264.031 198.393C263.777 198.811 263.646 199.454 263.639 200.321V202.055C263.639 202.977 263.771 203.659 264.037 204.1C264.307 204.538 264.713 204.757 265.256 204.757C265.791 204.757 266.188 204.549 266.445 204.135C266.707 203.721 266.844 203.069 266.855 202.178V200.403ZM269.234 198.633C269.234 198.122 269.396 197.7 269.721 197.368C270.049 197.036 270.469 196.87 270.98 196.87C271.5 196.87 271.92 197.038 272.24 197.374C272.564 197.706 272.727 198.137 272.727 198.669V199.085C272.727 199.6 272.562 200.022 272.234 200.35C271.91 200.674 271.496 200.837 270.992 200.837C270.484 200.837 270.064 200.674 269.732 200.35C269.4 200.022 269.234 199.587 269.234 199.044V198.633ZM270.043 199.085C270.043 199.389 270.129 199.641 270.301 199.841C270.473 200.036 270.703 200.133 270.992 200.133C271.27 200.133 271.492 200.038 271.66 199.846C271.832 199.655 271.918 199.393 271.918 199.061V198.633C271.918 198.329 271.834 198.077 271.666 197.878C271.498 197.678 271.27 197.579 270.98 197.579C270.691 197.579 270.463 197.678 270.295 197.878C270.127 198.077 270.043 198.337 270.043 198.657V199.085ZM273.389 203.432C273.389 202.921 273.551 202.501 273.875 202.173C274.203 201.841 274.623 201.674 275.135 201.674C275.646 201.674 276.066 201.839 276.395 202.167C276.723 202.495 276.887 202.93 276.887 203.473V203.889C276.887 204.401 276.723 204.823 276.395 205.155C276.07 205.483 275.654 205.647 275.146 205.647C274.639 205.647 274.219 205.485 273.887 205.161C273.555 204.833 273.389 204.397 273.389 203.854V203.432ZM274.197 203.889C274.197 204.198 274.283 204.452 274.455 204.651C274.627 204.846 274.857 204.944 275.146 204.944C275.428 204.944 275.652 204.848 275.82 204.657C275.988 204.462 276.072 204.198 276.072 203.866V203.432C276.072 203.124 275.986 202.872 275.814 202.676C275.646 202.481 275.42 202.383 275.135 202.383C274.857 202.383 274.631 202.481 274.455 202.676C274.283 202.868 274.197 203.128 274.197 203.456V203.889ZM271.238 204.88L270.623 204.493L274.789 197.825L275.404 198.212L271.238 204.88Z" fill="#808080"/>
</g>
<g filter="url(#filter2_d)">
<path fill-rule="evenodd" clip-rule="evenodd" d="M340.58 115C335.057 115 330.58 119.477 330.58 125V162.721V164.652V174.652H340.551C340.561 174.652 340.571 174.652 340.58 174.652H420C420.01 174.652 420.02 174.652 420.029 174.652H430V164.652V162.721V125C430 119.477 425.523 115 420 115H340.58Z" fill="white"/>
<path d="M362.826 145.284L363.483 139.503H369.858V141.386H365.334L365.053 143.831C365.589 143.545 366.16 143.402 366.764 143.402C367.847 143.402 368.696 143.737 369.311 144.409C369.925 145.081 370.233 146.021 370.233 147.23C370.233 147.964 370.076 148.623 369.764 149.206C369.457 149.784 369.014 150.235 368.436 150.558C367.858 150.876 367.175 151.034 366.389 151.034C365.701 151.034 365.063 150.896 364.475 150.62C363.886 150.339 363.42 149.946 363.076 149.441C362.738 148.935 362.558 148.36 362.537 147.714H364.772C364.819 148.188 364.983 148.558 365.264 148.823C365.55 149.084 365.923 149.214 366.381 149.214C366.892 149.214 367.285 149.032 367.561 148.667C367.837 148.297 367.975 147.777 367.975 147.105C367.975 146.459 367.816 145.964 367.498 145.62C367.181 145.277 366.73 145.105 366.147 145.105C365.61 145.105 365.175 145.245 364.842 145.527L364.623 145.73L362.826 145.284ZM376.688 147.404V150.878H375.967V142.347H378.873C379.76 142.347 380.459 142.573 380.971 143.027C381.487 143.48 381.744 144.103 381.744 144.896C381.744 145.696 381.496 146.316 381 146.753C380.508 147.187 379.793 147.404 378.856 147.404H376.688ZM376.688 146.794H378.873C379.573 146.794 380.106 146.628 380.473 146.296C380.84 145.964 381.024 145.501 381.024 144.907C381.024 144.318 380.84 143.849 380.473 143.501C380.11 143.15 379.592 142.97 378.92 142.962H376.688V146.794ZM384.082 147.404V150.878H383.362V142.347H386.268C387.155 142.347 387.854 142.573 388.365 143.027C388.881 143.48 389.139 144.103 389.139 144.896C389.139 145.696 388.891 146.316 388.395 146.753C387.903 147.187 387.188 147.404 386.25 147.404H384.082ZM384.082 146.794H386.268C386.967 146.794 387.5 146.628 387.867 146.296C388.235 145.964 388.418 145.501 388.418 144.907C388.418 144.318 388.235 143.849 387.867 143.501C387.504 143.15 386.987 142.97 386.315 142.962H384.082V146.794ZM391.711 142.347L394.858 149.876L398.016 142.347H398.977V150.878H398.256V147.163L398.315 143.355L395.139 150.878H394.582L391.418 143.384L391.477 147.14V150.878H390.756V142.347H391.711Z" fill="#2B2B2B"/>
<path fill-rule="evenodd" clip-rule="evenodd" d="M420 174.652H430V184.652V185.588V204.42C430 209.943 425.523 214.42 420 214.42H340.58C335.057 214.42 330.58 209.943 330.58 204.42V185.588V184.652V174.652H340.58H420Z" fill="#F5F6F8"/>
<path d="M345.888 186.931L344.921 187.957V190.617H343.439V182.086H344.921V186.088L345.742 185.074L348.238 182.086H350.031L346.861 185.865L350.212 190.617H348.455L345.888 186.931ZM354.66 190.617C354.597 190.496 354.542 190.299 354.496 190.025C354.042 190.498 353.488 190.734 352.832 190.734C352.195 190.734 351.675 190.552 351.273 190.189C350.871 189.826 350.669 189.377 350.669 188.842C350.669 188.166 350.919 187.648 351.419 187.289C351.923 186.926 352.642 186.744 353.576 186.744H354.449V186.328C354.449 186 354.357 185.738 354.173 185.543C353.99 185.344 353.71 185.244 353.335 185.244C353.011 185.244 352.746 185.326 352.539 185.49C352.332 185.65 352.228 185.855 352.228 186.105H350.804C350.804 185.758 350.919 185.433 351.15 185.133C351.38 184.828 351.693 184.59 352.087 184.418C352.486 184.246 352.929 184.16 353.417 184.16C354.16 184.16 354.751 184.347 355.193 184.722C355.634 185.094 355.861 185.617 355.873 186.293V189.152C355.873 189.722 355.953 190.177 356.113 190.517V190.617H354.66ZM353.095 189.592C353.376 189.592 353.64 189.523 353.886 189.386C354.136 189.25 354.324 189.066 354.449 188.836V187.64H353.681C353.154 187.64 352.757 187.732 352.492 187.916C352.226 188.099 352.093 188.359 352.093 188.695C352.093 188.969 352.183 189.187 352.363 189.351C352.546 189.511 352.791 189.592 353.095 189.592ZM357.097 187.4C357.097 186.424 357.324 185.64 357.777 185.051C358.23 184.457 358.837 184.16 359.599 184.16C360.271 184.16 360.814 184.394 361.228 184.863V181.617H362.652V190.617H361.363L361.292 189.961C360.867 190.476 360.298 190.734 359.587 190.734C358.845 190.734 358.244 190.435 357.783 189.838C357.326 189.24 357.097 188.427 357.097 187.4ZM358.521 187.523C358.521 188.168 358.644 188.672 358.89 189.035C359.14 189.394 359.494 189.574 359.951 189.574C360.533 189.574 360.958 189.314 361.228 188.795V186.088C360.966 185.58 360.544 185.326 359.962 185.326C359.501 185.326 359.146 185.51 358.896 185.877C358.646 186.24 358.521 186.789 358.521 187.523ZM367.925 190.617C367.863 190.496 367.808 190.299 367.761 190.025C367.308 190.498 366.753 190.734 366.097 190.734C365.46 190.734 364.941 190.552 364.539 190.189C364.136 189.826 363.935 189.377 363.935 188.842C363.935 188.166 364.185 187.648 364.685 187.289C365.189 186.926 365.908 186.744 366.841 186.744H367.714V186.328C367.714 186 367.623 185.738 367.439 185.543C367.255 185.344 366.976 185.244 366.601 185.244C366.277 185.244 366.011 185.326 365.804 185.49C365.597 185.65 365.494 185.855 365.494 186.105H364.07C364.07 185.758 364.185 185.433 364.416 185.133C364.646 184.828 364.958 184.59 365.353 184.418C365.751 184.246 366.195 184.16 366.683 184.16C367.425 184.16 368.017 184.347 368.458 184.722C368.9 185.094 369.126 185.617 369.138 186.293V189.152C369.138 189.722 369.218 190.177 369.378 190.517V190.617H367.925ZM366.361 189.592C366.642 189.592 366.906 189.523 367.152 189.386C367.402 189.25 367.589 189.066 367.714 188.836V187.64H366.947C366.419 187.64 366.023 187.732 365.757 187.916C365.492 188.099 365.359 188.359 365.359 188.695C365.359 188.969 365.449 189.187 365.628 189.351C365.812 189.511 366.056 189.592 366.361 189.592ZM373.949 185.578C373.761 185.547 373.568 185.531 373.369 185.531C372.716 185.531 372.277 185.781 372.05 186.281V190.617H370.626V184.277H371.986L372.021 184.986C372.365 184.435 372.841 184.16 373.451 184.16C373.654 184.16 373.822 184.187 373.955 184.242L373.949 185.578ZM382.75 188.631H379.445L378.753 190.617H377.212L380.435 182.086H381.765L384.994 190.617H383.447L382.75 188.631ZM379.861 187.435H382.333L381.097 183.896L379.861 187.435ZM386.886 184.277L386.927 184.939C387.373 184.42 387.982 184.16 388.755 184.16C389.603 184.16 390.183 184.484 390.496 185.133C390.957 184.484 391.605 184.16 392.441 184.16C393.14 184.16 393.66 184.353 394 184.74C394.343 185.127 394.519 185.697 394.527 186.451V190.617H393.103V186.492C393.103 186.09 393.015 185.795 392.839 185.607C392.664 185.42 392.373 185.326 391.966 185.326C391.642 185.326 391.376 185.414 391.169 185.59C390.966 185.761 390.824 185.988 390.742 186.269L390.748 190.617H389.324V186.445C389.304 185.699 388.923 185.326 388.181 185.326C387.611 185.326 387.207 185.558 386.968 186.023V190.617H385.544V184.277H386.886ZM395.722 187.388C395.722 186.767 395.845 186.209 396.091 185.713C396.337 185.213 396.683 184.83 397.128 184.564C397.574 184.295 398.085 184.16 398.664 184.16C399.519 184.16 400.212 184.435 400.744 184.986C401.279 185.537 401.568 186.267 401.611 187.177L401.617 187.511C401.617 188.136 401.496 188.695 401.253 189.187C401.015 189.679 400.671 190.06 400.222 190.33C399.777 190.599 399.261 190.734 398.675 190.734C397.781 190.734 397.064 190.437 396.525 189.844C395.99 189.246 395.722 188.451 395.722 187.459V187.388ZM397.146 187.511C397.146 188.164 397.281 188.676 397.55 189.047C397.82 189.414 398.195 189.597 398.675 189.597C399.156 189.597 399.529 189.41 399.794 189.035C400.064 188.66 400.199 188.111 400.199 187.388C400.199 186.748 400.06 186.24 399.783 185.865C399.509 185.49 399.136 185.302 398.664 185.302C398.199 185.302 397.83 185.488 397.556 185.859C397.283 186.226 397.146 186.777 397.146 187.511ZM404.142 184.277L404.183 185.01C404.652 184.443 405.267 184.16 406.029 184.16C407.349 184.16 408.021 184.916 408.044 186.427V190.617H406.621V186.51C406.621 186.107 406.533 185.81 406.357 185.619C406.185 185.424 405.902 185.326 405.507 185.326C404.933 185.326 404.505 185.586 404.224 186.105V190.617H402.8V184.277H404.142ZM411.015 190.617H409.591V184.277H411.015V190.617ZM409.503 182.631C409.503 182.412 409.572 182.23 409.708 182.086C409.849 181.941 410.048 181.869 410.306 181.869C410.564 181.869 410.763 181.941 410.904 182.086C411.044 182.23 411.115 182.412 411.115 182.631C411.115 182.845 411.044 183.025 410.904 183.17C410.763 183.31 410.564 183.381 410.306 183.381C410.048 183.381 409.849 183.31 409.708 183.17C409.572 183.025 409.503 182.845 409.503 182.631ZM416.359 190.617C416.296 190.496 416.242 190.299 416.195 190.025C415.742 190.498 415.187 190.734 414.531 190.734C413.894 190.734 413.375 190.552 412.972 190.189C412.57 189.826 412.369 189.377 412.369 188.842C412.369 188.166 412.619 187.648 413.119 187.289C413.623 186.926 414.341 186.744 415.275 186.744H416.148V186.328C416.148 186 416.056 185.738 415.873 185.543C415.689 185.344 415.41 185.244 415.035 185.244C414.71 185.244 414.445 185.326 414.238 185.49C414.031 185.65 413.927 185.855 413.927 186.105H412.503C412.503 185.758 412.619 185.433 412.849 185.133C413.08 184.828 413.392 184.59 413.787 184.418C414.185 184.246 414.628 184.16 415.117 184.16C415.859 184.16 416.451 184.347 416.892 184.722C417.333 185.094 417.56 185.617 417.572 186.293V189.152C417.572 189.722 417.652 190.177 417.812 190.517V190.617H416.359ZM414.794 189.592C415.076 189.592 415.339 189.523 415.585 189.386C415.835 189.25 416.023 189.066 416.148 188.836V187.64H415.38C414.853 187.64 414.457 187.732 414.191 187.916C413.925 188.099 413.792 188.359 413.792 188.695C413.792 188.969 413.882 189.187 414.062 189.351C414.246 189.511 414.49 189.592 414.794 189.592Z" fill="black"/>
<path d="M357.926 201.885C357.926 203.155 357.709 204.098 357.275 204.716C356.842 205.333 356.164 205.641 355.242 205.641C354.332 205.641 353.658 205.341 353.221 204.739C352.783 204.133 352.557 203.231 352.541 202.032V200.585C352.541 199.331 352.758 198.399 353.191 197.79C353.625 197.18 354.305 196.876 355.23 196.876C356.148 196.876 356.824 197.171 357.258 197.76C357.691 198.346 357.914 199.253 357.926 200.479V201.885ZM356.842 200.403C356.842 199.485 356.713 198.817 356.455 198.399C356.197 197.977 355.789 197.766 355.23 197.766C354.676 197.766 354.271 197.975 354.018 198.393C353.764 198.811 353.633 199.454 353.625 200.321V202.055C353.625 202.977 353.758 203.659 354.023 204.1C354.293 204.538 354.699 204.757 355.242 204.757C355.777 204.757 356.174 204.549 356.432 204.135C356.693 203.721 356.83 203.069 356.842 202.178V200.403ZM364.658 202.342H361.799V201.458H364.658V202.342ZM372.146 205.524H371.057V198.299L368.871 199.102V198.118L371.977 196.952H372.146V205.524ZM380.672 201.885C380.672 203.155 380.455 204.098 380.021 204.716C379.588 205.333 378.91 205.641 377.988 205.641C377.078 205.641 376.404 205.341 375.967 204.739C375.529 204.133 375.303 203.231 375.287 202.032V200.585C375.287 199.331 375.504 198.399 375.938 197.79C376.371 197.18 377.051 196.876 377.977 196.876C378.895 196.876 379.57 197.171 380.004 197.76C380.438 198.346 380.66 199.253 380.672 200.479V201.885ZM379.588 200.403C379.588 199.485 379.459 198.817 379.201 198.399C378.943 197.977 378.535 197.766 377.977 197.766C377.422 197.766 377.018 197.975 376.764 198.393C376.51 198.811 376.379 199.454 376.371 200.321V202.055C376.371 202.977 376.504 203.659 376.77 204.1C377.039 204.538 377.445 204.757 377.988 204.757C378.523 204.757 378.92 204.549 379.178 204.135C379.439 203.721 379.576 203.069 379.588 202.178V200.403ZM386.443 202.184V205.524H385.318V196.993H388.465C389.398 196.993 390.129 197.231 390.656 197.708C391.188 198.184 391.453 198.815 391.453 199.6C391.453 200.428 391.193 201.067 390.674 201.516C390.158 201.962 389.418 202.184 388.453 202.184H386.443ZM386.443 201.264H388.465C389.066 201.264 389.527 201.124 389.848 200.842C390.168 200.557 390.328 200.147 390.328 199.612C390.328 199.104 390.168 198.698 389.848 198.393C389.527 198.089 389.088 197.93 388.529 197.919H386.443V201.264ZM394.014 202.184V205.524H392.889V196.993H396.035C396.969 196.993 397.699 197.231 398.227 197.708C398.758 198.184 399.023 198.815 399.023 199.6C399.023 200.428 398.764 201.067 398.244 201.516C397.729 201.962 396.988 202.184 396.023 202.184H394.014ZM394.014 201.264H396.035C396.637 201.264 397.098 201.124 397.418 200.842C397.738 200.557 397.898 200.147 397.898 199.612C397.898 199.104 397.738 198.698 397.418 198.393C397.098 198.089 396.658 197.93 396.1 197.919H394.014V201.264ZM401.912 196.993L404.701 203.954L407.49 196.993H408.949V205.524H407.824V202.202L407.93 198.616L405.129 205.524H404.268L401.473 198.633L401.584 202.202V205.524H400.459V196.993H401.912Z" fill="#808080"/>
</g>
<g filter="url(#filter3_d)">
<path fill-rule="evenodd" clip-rule="evenodd" d="M90 240.076C84.4772 240.076 80 244.554 80 250.076V287.798V289.728V299.728H89.975C89.9834 299.728 89.9917 299.728 90 299.728H169.42C169.428 299.728 169.436 299.728 169.445 299.728H179.42V289.728V287.798V250.076C179.42 244.554 174.943 240.076 169.42 240.076H90Z" fill="white"/>
<path d="M106.366 272.845H107.944V274.024H106.366V276.665H104.913V274.024H99.7329V273.173L104.827 265.29H106.366V272.845ZM101.374 272.845H104.913V267.267L104.741 267.579L101.374 272.845ZM114.788 271.665C114.486 272.024 114.124 272.313 113.702 272.532C113.285 272.751 112.827 272.86 112.327 272.86C111.67 272.86 111.097 272.699 110.608 272.376C110.124 272.053 109.749 271.6 109.483 271.017C109.217 270.428 109.084 269.78 109.084 269.071C109.084 268.311 109.228 267.626 109.514 267.017C109.806 266.407 110.217 265.941 110.749 265.618C111.28 265.295 111.9 265.134 112.608 265.134C113.733 265.134 114.618 265.556 115.264 266.399C115.915 267.238 116.241 268.384 116.241 269.837V270.259C116.241 272.472 115.803 274.089 114.928 275.11C114.053 276.126 112.733 276.647 110.967 276.673H110.686V275.454H110.991C112.183 275.433 113.1 275.123 113.741 274.524C114.381 273.92 114.73 272.967 114.788 271.665ZM112.561 271.665C113.045 271.665 113.491 271.517 113.897 271.22C114.308 270.923 114.608 270.556 114.795 270.118V269.54C114.795 268.592 114.59 267.821 114.178 267.227C113.767 266.634 113.246 266.337 112.616 266.337C111.98 266.337 111.47 266.582 111.084 267.071C110.699 267.556 110.506 268.196 110.506 268.993C110.506 269.769 110.691 270.41 111.061 270.915C111.436 271.415 111.936 271.665 112.561 271.665ZM125.366 271.813C125.366 273.506 125.077 274.764 124.499 275.587C123.92 276.41 123.017 276.821 121.788 276.821C120.574 276.821 119.676 276.42 119.092 275.618C118.509 274.811 118.207 273.608 118.186 272.009V270.079C118.186 268.407 118.475 267.165 119.053 266.352C119.631 265.54 120.538 265.134 121.772 265.134C122.996 265.134 123.897 265.527 124.475 266.313C125.053 267.095 125.35 268.303 125.366 269.938V271.813ZM123.92 269.837C123.92 268.613 123.749 267.722 123.405 267.165C123.061 266.602 122.517 266.321 121.772 266.321C121.032 266.321 120.493 266.6 120.155 267.157C119.816 267.714 119.642 268.571 119.631 269.727V272.04C119.631 273.269 119.808 274.178 120.163 274.767C120.522 275.35 121.064 275.642 121.788 275.642C122.501 275.642 123.03 275.365 123.374 274.813C123.722 274.261 123.905 273.392 123.92 272.204V269.837ZM133.694 272.751L132.788 273.696V276.665H131.342V264.665H132.788V271.923L133.561 270.993L136.194 268.212H137.952L134.663 271.743L138.334 276.665H136.639L133.694 272.751ZM146.928 274.673L148.553 268.212H149.999L147.538 276.665H146.366L144.311 270.259L142.311 276.665H141.139L138.686 268.212H140.124L141.788 274.54L143.756 268.212H144.92L146.928 274.673ZM152.92 269.235C153.561 268.449 154.394 268.056 155.42 268.056C157.207 268.056 158.108 269.063 158.124 271.079V276.665H156.678V271.071C156.673 270.462 156.532 270.011 156.256 269.72C155.986 269.428 155.561 269.282 154.983 269.282C154.514 269.282 154.103 269.407 153.749 269.657C153.394 269.907 153.118 270.235 152.92 270.642V276.665H151.475V264.665H152.92V269.235Z" fill="#2B2B2B"/>
<path fill-rule="evenodd" clip-rule="evenodd" d="M169.42 299.728H179.42V309.728V310.664V329.496C179.42 335.019 174.943 339.496 169.42 339.496H90C84.4772 339.496 80 335.019 80 329.496V310.664V309.728V299.728H90H169.42Z" fill="#F5F6F8"/>
<path d="M115.247 320.234H119.12V321.418H113.765V312.886H115.247V320.234ZM121.634 321.418H120.21V315.078H121.634V321.418ZM120.122 313.431C120.122 313.213 120.191 313.031 120.327 312.886C120.468 312.742 120.667 312.67 120.925 312.67C121.183 312.67 121.382 312.742 121.523 312.886C121.663 313.031 121.734 313.213 121.734 313.431C121.734 313.646 121.663 313.826 121.523 313.97C121.382 314.111 121.183 314.181 120.925 314.181C120.667 314.181 120.468 314.111 120.327 313.97C120.191 313.826 120.122 313.646 120.122 313.431ZM126.743 319.695C126.743 319.441 126.638 319.248 126.427 319.115C126.22 318.982 125.874 318.865 125.39 318.763C124.906 318.662 124.501 318.533 124.177 318.377C123.466 318.033 123.111 317.535 123.111 316.882C123.111 316.336 123.341 315.879 123.802 315.511C124.263 315.144 124.849 314.961 125.56 314.961C126.318 314.961 126.929 315.148 127.394 315.523C127.863 315.898 128.097 316.384 128.097 316.982H126.673C126.673 316.709 126.572 316.482 126.368 316.302C126.165 316.119 125.896 316.027 125.56 316.027C125.247 316.027 124.991 316.099 124.792 316.244C124.597 316.388 124.499 316.582 124.499 316.824C124.499 317.043 124.591 317.213 124.775 317.334C124.958 317.455 125.329 317.578 125.888 317.703C126.447 317.824 126.884 317.97 127.2 318.142C127.521 318.31 127.757 318.513 127.909 318.752C128.066 318.99 128.144 319.279 128.144 319.619C128.144 320.189 127.907 320.652 127.435 321.007C126.962 321.359 126.343 321.535 125.577 321.535C125.058 321.535 124.595 321.441 124.189 321.254C123.782 321.066 123.466 320.808 123.24 320.48C123.013 320.152 122.9 319.798 122.9 319.42H124.282C124.302 319.755 124.429 320.015 124.663 320.199C124.898 320.379 125.208 320.468 125.595 320.468C125.97 320.468 126.255 320.398 126.45 320.257C126.646 320.113 126.743 319.925 126.743 319.695ZM131.173 313.537V315.078H132.292V316.132H131.173V319.672C131.173 319.914 131.22 320.089 131.314 320.199C131.411 320.304 131.583 320.357 131.829 320.357C131.993 320.357 132.159 320.338 132.327 320.298V321.4C132.003 321.49 131.691 321.535 131.39 321.535C130.296 321.535 129.749 320.931 129.749 319.724V316.132H128.706V315.078H129.749V313.537H131.173ZM136.704 316.379C136.517 316.347 136.323 316.332 136.124 316.332C135.472 316.332 135.032 316.582 134.806 317.082V321.418H133.382V315.078H134.741L134.777 315.787C135.12 315.236 135.597 314.961 136.206 314.961C136.409 314.961 136.577 314.988 136.71 315.043L136.704 316.379ZM139.118 321.418H137.695V315.078H139.118V321.418ZM137.607 313.431C137.607 313.213 137.675 313.031 137.812 312.886C137.952 312.742 138.152 312.67 138.409 312.67C138.667 312.67 138.866 312.742 139.007 312.886C139.148 313.031 139.218 313.213 139.218 313.431C139.218 313.646 139.148 313.826 139.007 313.97C138.866 314.111 138.667 314.181 138.409 314.181C138.152 314.181 137.952 314.111 137.812 313.97C137.675 313.826 137.607 313.646 137.607 313.431ZM142.734 318.699L142.101 319.349V321.418H140.677V312.418H142.101V317.609L142.546 317.052L144.298 315.078H146.009L143.654 317.72L146.261 321.418H144.615L142.734 318.699Z" fill="black"/>
</g>
<g filter="url(#filter4_d)">
<path fill-rule="evenodd" clip-rule="evenodd" d="M215.076 240.076C209.554 240.076 205.076 244.554 205.076 250.076V287.798V289.728V299.728H215.051C215.06 299.728 215.068 299.728 215.076 299.728H294.496C294.504 299.728 294.513 299.728 294.521 299.728H304.496V289.728V287.798V250.076C304.496 244.554 300.019 240.076 294.496 240.076H215.076Z" fill="white"/>
<path d="M232.309 276.665H230.856V267.032L227.942 268.102V266.79L232.083 265.235H232.309V276.665ZM243.442 268.259C243.442 268.826 243.291 269.332 242.989 269.774C242.692 270.217 242.288 270.563 241.778 270.813C242.372 271.069 242.841 271.441 243.184 271.931C243.533 272.42 243.708 272.975 243.708 273.595C243.708 274.579 243.374 275.363 242.708 275.946C242.046 276.53 241.174 276.821 240.091 276.821C238.997 276.821 238.119 276.53 237.458 275.946C236.802 275.358 236.473 274.574 236.473 273.595C236.473 272.98 236.64 272.425 236.973 271.931C237.312 271.436 237.778 271.061 238.372 270.806C237.867 270.556 237.468 270.209 237.177 269.767C236.885 269.324 236.739 268.821 236.739 268.259C236.739 267.3 237.046 266.54 237.661 265.977C238.275 265.415 239.085 265.134 240.091 265.134C241.091 265.134 241.898 265.415 242.512 265.977C243.132 266.54 243.442 267.3 243.442 268.259ZM242.262 273.563C242.262 272.928 242.059 272.41 241.653 272.009C241.252 271.608 240.726 271.407 240.075 271.407C239.424 271.407 238.9 271.605 238.505 272.001C238.114 272.397 237.919 272.918 237.919 273.563C237.919 274.209 238.109 274.717 238.489 275.087C238.874 275.457 239.408 275.642 240.091 275.642C240.768 275.642 241.299 275.457 241.684 275.087C242.07 274.712 242.262 274.204 242.262 273.563ZM240.091 266.321C239.523 266.321 239.062 266.498 238.708 266.852C238.359 267.201 238.184 267.678 238.184 268.282C238.184 268.86 238.356 269.329 238.7 269.688C239.049 270.043 239.512 270.22 240.091 270.22C240.669 270.22 241.13 270.043 241.473 269.688C241.822 269.329 241.997 268.86 241.997 268.282C241.997 267.704 241.817 267.233 241.458 266.868C241.098 266.504 240.643 266.321 240.091 266.321ZM252.661 271.813C252.661 273.506 252.372 274.764 251.794 275.587C251.216 276.41 250.312 276.821 249.083 276.821C247.869 276.821 246.971 276.42 246.387 275.618C245.804 274.811 245.502 273.608 245.481 272.009V270.079C245.481 268.407 245.77 267.165 246.348 266.352C246.927 265.54 247.833 265.134 249.067 265.134C250.291 265.134 251.192 265.527 251.77 266.313C252.348 267.095 252.645 268.303 252.661 269.938V271.813ZM251.216 269.837C251.216 268.613 251.044 267.722 250.7 267.165C250.356 266.602 249.812 266.321 249.067 266.321C248.328 266.321 247.788 266.6 247.45 267.157C247.111 267.714 246.937 268.571 246.927 269.727V272.04C246.927 273.269 247.104 274.178 247.458 274.767C247.817 275.35 248.359 275.642 249.083 275.642C249.796 275.642 250.325 275.365 250.669 274.813C251.018 274.261 251.2 273.392 251.216 272.204V269.837ZM260.2 276.665H258.755V264.665H260.2V276.665ZM262.809 277.642H261.567L266.317 265.29H267.552L262.809 277.642ZM270.473 268.212L270.512 269.149C271.132 268.42 271.968 268.056 273.02 268.056C274.203 268.056 275.007 268.509 275.434 269.415C275.716 269.009 276.08 268.681 276.528 268.431C276.981 268.181 277.515 268.056 278.13 268.056C279.984 268.056 280.927 269.037 280.958 271.001V276.665H279.512V271.087C279.512 270.483 279.374 270.032 279.098 269.735C278.822 269.433 278.359 269.282 277.708 269.282C277.171 269.282 276.726 269.444 276.372 269.767C276.018 270.084 275.812 270.514 275.755 271.056V276.665H274.302V271.126C274.302 269.897 273.7 269.282 272.497 269.282C271.549 269.282 270.9 269.686 270.552 270.493V276.665H269.106V268.212H270.473Z" fill="#2B2B2B"/>
<path fill-rule="evenodd" clip-rule="evenodd" d="M294.496 299.728H304.496V309.728V310.664V329.496C304.496 335.019 300.019 339.496 294.496 339.496H215.076C209.554 339.496 205.076 335.019 205.076 329.496V310.664V309.728V299.728H215.076H294.496Z" fill="#F5F6F8"/>
<path d="M252.634 319.431H249.33L248.638 321.418H247.097L250.32 312.886H251.65L254.878 321.418H253.332L252.634 319.431ZM249.746 318.236H252.218L250.982 314.697L249.746 318.236ZM257.228 321.418H255.804V315.078H257.228V321.418ZM255.716 313.431C255.716 313.213 255.785 313.031 255.921 312.886C256.062 312.742 256.261 312.67 256.519 312.67C256.777 312.67 256.976 312.742 257.117 312.886C257.257 313.031 257.328 313.213 257.328 313.431C257.328 313.646 257.257 313.826 257.117 313.97C256.976 314.111 256.777 314.181 256.519 314.181C256.261 314.181 256.062 314.111 255.921 313.97C255.785 313.826 255.716 313.646 255.716 313.431ZM262.103 316.379C261.916 316.347 261.722 316.332 261.523 316.332C260.871 316.332 260.431 316.582 260.205 317.082V321.418H258.781V315.078H260.14L260.175 315.787C260.519 315.236 260.996 314.961 261.605 314.961C261.808 314.961 261.976 314.988 262.109 315.043L262.103 316.379Z" fill="black"/>
</g>
<g filter="url(#filter5_d)">
<path fill-rule="evenodd" clip-rule="evenodd" d="M340.153 240.076C334.63 240.076 330.153 244.554 330.153 250.076V287.798V289.728V299.728H340.128C340.136 299.728 340.145 299.728 340.153 299.728H419.573C419.581 299.728 419.589 299.728 419.597 299.728H429.573V289.728V287.798V250.076C429.573 244.554 425.095 240.076 419.573 240.076H340.153Z" fill="white"/>
<path d="M365.229 276.665H363.776V267.032L360.862 268.102V266.79L365.003 265.235H365.229V276.665ZM376.597 271.813C376.597 273.506 376.308 274.764 375.729 275.587C375.151 276.41 374.248 276.821 373.019 276.821C371.805 276.821 370.907 276.42 370.323 275.618C369.74 274.811 369.438 273.608 369.417 272.009V270.079C369.417 268.407 369.706 267.165 370.284 266.352C370.862 265.54 371.769 265.134 373.003 265.134C374.227 265.134 375.128 265.527 375.706 266.313C376.284 267.095 376.581 268.303 376.597 269.938V271.813ZM375.151 269.837C375.151 268.613 374.979 267.722 374.636 267.165C374.292 266.602 373.748 266.321 373.003 266.321C372.263 266.321 371.724 266.6 371.386 267.157C371.047 267.714 370.873 268.571 370.862 269.727V272.04C370.862 273.269 371.039 274.178 371.394 274.767C371.753 275.35 372.295 275.642 373.019 275.642C373.732 275.642 374.261 275.365 374.604 274.813C374.953 274.261 375.136 273.392 375.151 272.204V269.837ZM385.683 271.376L384.292 272.821V276.665H382.792V265.29H384.292V270.915L389.347 265.29H391.159L386.683 270.313L391.511 276.665H389.714L385.683 271.376ZM392.05 272.368C392.05 271.05 392.354 270.004 392.964 269.227C393.573 268.446 394.381 268.056 395.386 268.056C396.417 268.056 397.222 268.42 397.8 269.149L397.87 268.212H399.19V276.462C399.19 277.556 398.865 278.418 398.214 279.048C397.568 279.678 396.698 279.993 395.604 279.993C394.995 279.993 394.399 279.863 393.815 279.602C393.232 279.342 392.787 278.985 392.479 278.532L393.229 277.665C393.849 278.431 394.607 278.813 395.503 278.813C396.206 278.813 396.753 278.615 397.144 278.22C397.539 277.824 397.737 277.267 397.737 276.548V275.821C397.159 276.488 396.37 276.821 395.37 276.821C394.381 276.821 393.578 276.423 392.964 275.626C392.354 274.829 392.05 273.743 392.05 272.368ZM393.503 272.532C393.503 273.485 393.698 274.235 394.089 274.782C394.479 275.324 395.026 275.595 395.729 275.595C396.641 275.595 397.31 275.181 397.737 274.352V270.493C397.295 269.686 396.631 269.282 395.745 269.282C395.042 269.282 394.493 269.556 394.097 270.102C393.701 270.649 393.503 271.459 393.503 272.532Z" fill="#2B2B2B"/>
<path fill-rule="evenodd" clip-rule="evenodd" d="M419.573 299.728H429.573V309.728V310.664V329.496C429.573 335.019 425.095 339.496 419.573 339.496H340.153C334.63 339.496 330.153 335.019 330.153 329.496V310.664V309.728V299.728H340.153H419.573Z" fill="#F5F6F8"/>
<path d="M377.185 320.31C376.877 320.713 376.449 321.017 375.902 321.224C375.355 321.431 374.734 321.535 374.039 321.535C373.324 321.535 372.691 321.373 372.14 321.048C371.59 320.724 371.164 320.261 370.863 319.66C370.566 319.054 370.412 318.349 370.4 317.545V316.877C370.4 315.588 370.709 314.582 371.326 313.859C371.943 313.132 372.804 312.769 373.91 312.769C374.859 312.769 375.613 313.004 376.172 313.472C376.73 313.941 377.066 314.617 377.179 315.5H375.726C375.562 314.472 374.967 313.959 373.939 313.959C373.275 313.959 372.769 314.199 372.422 314.679C372.078 315.156 371.9 315.857 371.888 316.783V317.439C371.888 318.361 372.082 319.078 372.469 319.589C372.859 320.097 373.4 320.351 374.092 320.351C374.849 320.351 375.388 320.179 375.709 319.836V318.166H373.951V317.041H377.185V320.31ZM382.465 321.418C382.402 321.297 382.347 321.099 382.301 320.826C381.847 321.298 381.293 321.535 380.636 321.535C380 321.535 379.48 321.353 379.078 320.99C378.676 320.627 378.474 320.177 378.474 319.642C378.474 318.966 378.724 318.449 379.224 318.089C379.728 317.726 380.447 317.545 381.381 317.545H382.254V317.129C382.254 316.8 382.162 316.539 381.978 316.343C381.795 316.144 381.515 316.045 381.14 316.045C380.816 316.045 380.551 316.127 380.344 316.291C380.136 316.451 380.033 316.656 380.033 316.906H378.609C378.609 316.558 378.724 316.234 378.955 315.933C379.185 315.629 379.498 315.39 379.892 315.218C380.291 315.047 380.734 314.961 381.222 314.961C381.965 314.961 382.556 315.148 382.998 315.523C383.439 315.894 383.666 316.418 383.677 317.093V319.953C383.677 320.523 383.758 320.978 383.918 321.318V321.418H382.465ZM380.9 320.392C381.181 320.392 381.445 320.324 381.691 320.187C381.941 320.05 382.129 319.867 382.254 319.636V318.441H381.486C380.959 318.441 380.562 318.533 380.297 318.716C380.031 318.9 379.898 319.16 379.898 319.496C379.898 319.769 379.988 319.988 380.168 320.152C380.351 320.312 380.595 320.392 380.9 320.392ZM388.722 319.695C388.722 319.441 388.617 319.248 388.406 319.115C388.199 318.982 387.853 318.865 387.369 318.763C386.885 318.662 386.48 318.533 386.156 318.377C385.445 318.033 385.09 317.535 385.09 316.882C385.09 316.336 385.32 315.879 385.781 315.511C386.242 315.144 386.828 314.961 387.539 314.961C388.297 314.961 388.908 315.148 389.373 315.523C389.842 315.898 390.076 316.384 390.076 316.982H388.652C388.652 316.709 388.551 316.482 388.347 316.302C388.144 316.119 387.875 316.027 387.539 316.027C387.226 316.027 386.97 316.099 386.771 316.244C386.576 316.388 386.478 316.582 386.478 316.824C386.478 317.043 386.57 317.213 386.754 317.334C386.937 317.455 387.308 317.578 387.867 317.703C388.426 317.824 388.863 317.97 389.179 318.142C389.5 318.31 389.736 318.513 389.888 318.752C390.045 318.99 390.123 319.279 390.123 319.619C390.123 320.189 389.886 320.652 389.414 321.007C388.941 321.359 388.322 321.535 387.556 321.535C387.037 321.535 386.574 321.441 386.168 321.254C385.761 321.066 385.445 320.808 385.219 320.48C384.992 320.152 384.879 319.798 384.879 319.42H386.261C386.281 319.755 386.408 320.015 386.642 320.199C386.877 320.379 387.187 320.468 387.574 320.468C387.949 320.468 388.234 320.398 388.429 320.257C388.625 320.113 388.722 319.925 388.722 319.695Z" fill="black"/>
</g>
<defs>
<filter id="filter0_d" x="60" y="101" width="139.42" height="139.42" filterUnits="userSpaceOnUse" color-interpolation-filters="sRGB">
<feFlood flood-opacity="0" result="BackgroundImageFix"/>
<feColorMatrix in="SourceAlpha" type="matrix" values="0 0 0 0 0 0 0 0 0 0 0 0 0 0 0 0 0 0 127 0"/>
<feOffset dy="6"/>
<feGaussianBlur stdDeviation="10"/>
<feColorMatrix type="matrix" values="0 0 0 0 0 0 0 0 0 0 0 0 0 0 0 0 0 0 0.1 0"/>
<feBlend mode="normal" in2="BackgroundImageFix" result="effect1_dropShadow"/>
<feBlend mode="normal" in="SourceGraphic" in2="effect1_dropShadow" result="shape"/>
</filter>
<filter id="filter1_d" x="185.076" y="101" width="139.42" height="139.42" filterUnits="userSpaceOnUse" color-interpolation-filters="sRGB">
<feFlood flood-opacity="0" result="BackgroundImageFix"/>
<feColorMatrix in="SourceAlpha" type="matrix" values="0 0 0 0 0 0 0 0 0 0 0 0 0 0 0 0 0 0 127 0"/>
<feOffset dy="6"/>
<feGaussianBlur stdDeviation="10"/>
<feColorMatrix type="matrix" values="0 0 0 0 0 0 0 0 0 0 0 0 0 0 0 0 0 0 0.1 0"/>
<feBlend mode="normal" in2="BackgroundImageFix" result="effect1_dropShadow"/>
<feBlend mode="normal" in="SourceGraphic" in2="effect1_dropShadow" result="shape"/>
</filter>
<filter id="filter2_d" x="310.58" y="101" width="139.42" height="139.42" filterUnits="userSpaceOnUse" color-interpolation-filters="sRGB">
<feFlood flood-opacity="0" result="BackgroundImageFix"/>
<feColorMatrix in="SourceAlpha" type="matrix" values="0 0 0 0 0 0 0 0 0 0 0 0 0 0 0 0 0 0 127 0"/>
<feOffset dy="6"/>
<feGaussianBlur stdDeviation="10"/>
<feColorMatrix type="matrix" values="0 0 0 0 0 0 0 0 0 0 0 0 0 0 0 0 0 0 0.1 0"/>
<feBlend mode="normal" in2="BackgroundImageFix" result="effect1_dropShadow"/>
<feBlend mode="normal" in="SourceGraphic" in2="effect1_dropShadow" result="shape"/>
</filter>
<filter id="filter3_d" x="60" y="226.076" width="139.42" height="139.42" filterUnits="userSpaceOnUse" color-interpolation-filters="sRGB">
<feFlood flood-opacity="0" result="BackgroundImageFix"/>
<feColorMatrix in="SourceAlpha" type="matrix" values="0 0 0 0 0 0 0 0 0 0 0 0 0 0 0 0 0 0 127 0"/>
<feOffset dy="6"/>
<feGaussianBlur stdDeviation="10"/>
<feColorMatrix type="matrix" values="0 0 0 0 0 0 0 0 0 0 0 0 0 0 0 0 0 0 0.1 0"/>
<feBlend mode="normal" in2="BackgroundImageFix" result="effect1_dropShadow"/>
<feBlend mode="normal" in="SourceGraphic" in2="effect1_dropShadow" result="shape"/>
</filter>
<filter id="filter4_d" x="185.076" y="226.076" width="139.42" height="139.42" filterUnits="userSpaceOnUse" color-interpolation-filters="sRGB">
<feFlood flood-opacity="0" result="BackgroundImageFix"/>
<feColorMatrix in="SourceAlpha" type="matrix" values="0 0 0 0 0 0 0 0 0 0 0 0 0 0 0 0 0 0 127 0"/>
<feOffset dy="6"/>
<feGaussianBlur stdDeviation="10"/>
<feColorMatrix type="matrix" values="0 0 0 0 0 0 0 0 0 0 0 0 0 0 0 0 0 0 0.1 0"/>
<feBlend mode="normal" in2="BackgroundImageFix" result="effect1_dropShadow"/>
<feBlend mode="normal" in="SourceGraphic" in2="effect1_dropShadow" result="shape"/>
</filter>
<filter id="filter5_d" x="310.153" y="226.076" width="139.42" height="139.42" filterUnits="userSpaceOnUse" color-interpolation-filters="sRGB">
<feFlood flood-opacity="0" result="BackgroundImageFix"/>
<feColorMatrix in="SourceAlpha" type="matrix" values="0 0 0 0 0 0 0 0 0 0 0 0 0 0 0 0 0 0 127 0"/>
<feOffset dy="6"/>
<feGaussianBlur stdDeviation="10"/>
<feColorMatrix type="matrix" values="0 0 0 0 0 0 0 0 0 0 0 0 0 0 0 0 0 0 0.1 0"/>
<feBlend mode="normal" in2="BackgroundImageFix" result="effect1_dropShadow"/>
<feBlend mode="normal" in="SourceGraphic" in2="effect1_dropShadow" result="shape"/>
</filter>
</defs>
</svg>
