<svg width="18" height="19" viewBox="0 0 18 19" fill="none" xmlns="http://www.w3.org/2000/svg">
<path d="M15.875 0.75C16.3958 0.75 16.8385 0.932292 17.2031 1.29688C17.5677 1.66146 17.75 2.10417 17.75 2.625V16.375C17.75 16.8958 17.5677 17.3385 17.2031 17.7031C16.8385 18.0677 16.3958 18.25 15.875 18.25H10.5234V12.3125H12.7891L13.2188 9.5H10.5234V7.66406C10.5234 6.67448 11.0443 6.17969 12.0859 6.17969H13.2969V3.79688C12.5677 3.66667 11.8516 3.60156 11.1484 3.60156C10.3932 3.60156 9.74219 3.74479 9.19531 4.03125C8.67448 4.31771 8.25781 4.7474 7.94531 5.32031C7.63281 5.89323 7.47656 6.57031 7.47656 7.35156V9.5H5.01562V12.3125H7.47656V18.25H2.125C1.60417 18.25 1.16146 18.0677 0.796875 17.7031C0.432292 17.3385 0.25 16.8958 0.25 16.375V2.625C0.25 2.10417 0.432292 1.66146 0.796875 1.29688C1.16146 0.932292 1.60417 0.75 2.125 0.75H15.875Z" fill="#2B2B2B"/>
</svg>
