<svg width="18" height="19" viewBox="0 0 18 19" fill="none" xmlns="http://www.w3.org/2000/svg">
<path d="M5.83594 6.33594C6.72135 5.45052 7.78906 5.00781 9.03906 5.00781C10.2891 5.00781 11.3438 5.45052 12.2031 6.33594C13.0885 7.19531 13.5312 8.25 13.5312 9.5C13.5312 10.75 13.0885 11.8177 12.2031 12.7031C11.3438 13.5625 10.2891 13.9922 9.03906 13.9922C7.78906 13.9922 6.72135 13.5625 5.83594 12.7031C4.97656 11.8177 4.54688 10.75 4.54688 9.5C4.54688 8.25 4.97656 7.19531 5.83594 6.33594ZM6.96875 11.5703C7.54167 12.1432 8.23177 12.4297 9.03906 12.4297C9.84635 12.4297 10.5365 12.1432 11.1094 11.5703C11.6823 10.9974 11.9688 10.3073 11.9688 9.5C11.9688 8.69271 11.6823 8.0026 11.1094 7.42969C10.5365 6.85677 9.84635 6.57031 9.03906 6.57031C8.23177 6.57031 7.54167 6.85677 6.96875 7.42969C6.39583 8.0026 6.10938 8.69271 6.10938 9.5C6.10938 10.3073 6.39583 10.9974 6.96875 11.5703ZM14.4297 4.10938C14.638 4.29167 14.7422 4.52604 14.7422 4.8125C14.7422 5.09896 14.638 5.34635 14.4297 5.55469C14.2474 5.76302 14.013 5.86719 13.7266 5.86719C13.4401 5.86719 13.1927 5.76302 12.9844 5.55469C12.776 5.34635 12.6719 5.09896 12.6719 4.8125C12.6719 4.52604 12.776 4.29167 12.9844 4.10938C13.1927 3.90104 13.4401 3.79688 13.7266 3.79688C14.013 3.79688 14.2474 3.90104 14.4297 4.10938ZM17.75 5.90625C17.776 6.60938 17.7891 7.80729 17.7891 9.5C17.7891 11.1927 17.776 12.3906 17.75 13.0938C17.6719 14.6823 17.1901 15.9193 16.3047 16.8047C15.4453 17.6641 14.2214 18.1198 12.6328 18.1719C11.9297 18.224 10.7318 18.25 9.03906 18.25C7.34635 18.25 6.14844 18.224 5.44531 18.1719C3.85677 18.0938 2.63281 17.625 1.77344 16.7656C1.4349 16.4531 1.16146 16.0885 0.953125 15.6719C0.744792 15.2552 0.588542 14.8516 0.484375 14.4609C0.40625 14.0703 0.367188 13.6146 0.367188 13.0938C0.315104 12.3906 0.289062 11.1927 0.289062 9.5C0.289062 7.80729 0.315104 6.59635 0.367188 5.86719C0.445312 4.30469 0.914062 3.09375 1.77344 2.23438C2.63281 1.34896 3.85677 0.867188 5.44531 0.789062C6.14844 0.763021 7.34635 0.75 9.03906 0.75C10.7318 0.75 11.9297 0.763021 12.6328 0.789062C14.2214 0.867188 15.4453 1.34896 16.3047 2.23438C17.1901 3.09375 17.6719 4.31771 17.75 5.90625ZM15.875 14.6562C15.9531 14.4479 16.0182 14.1875 16.0703 13.875C16.1224 13.5365 16.1615 13.1458 16.1875 12.7031C16.2135 12.2344 16.2266 11.8568 16.2266 11.5703C16.2266 11.2839 16.2266 10.8802 16.2266 10.3594C16.2266 9.83854 16.2266 9.55208 16.2266 9.5C16.2266 9.42188 16.2266 9.13542 16.2266 8.64062C16.2266 8.11979 16.2266 7.71615 16.2266 7.42969C16.2266 7.14323 16.2135 6.77865 16.1875 6.33594C16.1615 5.86719 16.1224 5.47656 16.0703 5.16406C16.0182 4.82552 15.9531 4.55208 15.875 4.34375C15.5625 3.53646 15.0026 2.97656 14.1953 2.66406C13.987 2.58594 13.7135 2.52083 13.375 2.46875C13.0625 2.41667 12.6719 2.3776 12.2031 2.35156C11.7604 2.32552 11.3958 2.3125 11.1094 2.3125C10.849 2.3125 10.4453 2.3125 9.89844 2.3125C9.3776 2.3125 9.09115 2.3125 9.03906 2.3125C8.98698 2.3125 8.70052 2.3125 8.17969 2.3125C7.65885 2.3125 7.25521 2.3125 6.96875 2.3125C6.68229 2.3125 6.30469 2.32552 5.83594 2.35156C5.39323 2.3776 5.0026 2.41667 4.66406 2.46875C4.35156 2.52083 4.09115 2.58594 3.88281 2.66406C3.07552 2.97656 2.51562 3.53646 2.20312 4.34375C2.125 4.55208 2.0599 4.82552 2.00781 5.16406C1.95573 5.47656 1.91667 5.86719 1.89062 6.33594C1.86458 6.77865 1.85156 7.14323 1.85156 7.42969C1.85156 7.6901 1.85156 8.09375 1.85156 8.64062C1.85156 9.16146 1.85156 9.44792 1.85156 9.5C1.85156 9.60417 1.85156 9.85156 1.85156 10.2422C1.85156 10.6068 1.85156 10.9193 1.85156 11.1797C1.85156 11.4141 1.85156 11.7266 1.85156 12.1172C1.8776 12.5078 1.90365 12.8464 1.92969 13.1328C1.95573 13.3932 1.99479 13.6667 2.04688 13.9531C2.09896 14.2396 2.15104 14.474 2.20312 14.6562C2.54167 15.4635 3.10156 16.0234 3.88281 16.3359C4.09115 16.4141 4.35156 16.4792 4.66406 16.5312C5.0026 16.5833 5.39323 16.6224 5.83594 16.6484C6.30469 16.6745 6.66927 16.6875 6.92969 16.6875C7.21615 16.6875 7.61979 16.6875 8.14062 16.6875C8.6875 16.6875 8.98698 16.6875 9.03906 16.6875C9.11719 16.6875 9.40365 16.6875 9.89844 16.6875C10.4193 16.6875 10.8229 16.6875 11.1094 16.6875C11.3958 16.6875 11.7604 16.6745 12.2031 16.6484C12.6719 16.6224 13.0625 16.5833 13.375 16.5312C13.7135 16.4792 13.987 16.4141 14.1953 16.3359C15.0026 15.9974 15.5625 15.4375 15.875 14.6562Z" fill="#2B2B2B"/>
</svg>
