<svg width="18" height="19" viewBox="0 0 18 19" fill="none" xmlns="http://www.w3.org/2000/svg">
<path d="M16.5 0.75C16.8385 0.75 17.125 0.880208 17.3594 1.14062C17.6198 1.375 17.75 1.66146 17.75 2V17C17.75 17.3385 17.6198 17.625 17.3594 17.8594C17.125 18.1198 16.8385 18.25 16.5 18.25H1.5C1.16146 18.25 0.861979 18.1198 0.601562 17.8594C0.367188 17.625 0.25 17.3385 0.25 17V2C0.25 1.66146 0.367188 1.375 0.601562 1.14062C0.861979 0.880208 1.16146 0.75 1.5 0.75H16.5ZM5.52344 15.75H5.5625V7.39062H2.94531V15.75H5.52344ZM3.17969 5.82812C3.46615 6.11458 3.81771 6.25781 4.23438 6.25781C4.65104 6.25781 5.0026 6.11458 5.28906 5.82812C5.60156 5.51562 5.75781 5.16406 5.75781 4.77344C5.75781 4.35677 5.60156 4.00521 5.28906 3.71875C5.0026 3.40625 4.65104 3.25 4.23438 3.25C3.81771 3.25 3.46615 3.40625 3.17969 3.71875C2.89323 4.00521 2.75 4.35677 2.75 4.77344C2.75 5.16406 2.89323 5.51562 3.17969 5.82812ZM15.25 15.75V11.1797C15.25 10.5547 15.2109 10.0208 15.1328 9.57812C15.0547 9.13542 14.9115 8.73177 14.7031 8.36719C14.4948 7.97656 14.1693 7.6901 13.7266 7.50781C13.3099 7.29948 12.7891 7.19531 12.1641 7.19531C11.5651 7.19531 11.0443 7.32552 10.6016 7.58594C10.1849 7.84635 9.88542 8.15885 9.70312 8.52344H9.66406V7.39062H7.16406V15.75H9.78125V11.6094C9.78125 10.9583 9.88542 10.4375 10.0938 10.0469C10.3021 9.65625 10.7057 9.46094 11.3047 9.46094C11.6172 9.46094 11.8776 9.52604 12.0859 9.65625C12.2943 9.78646 12.4245 9.98177 12.4766 10.2422C12.5547 10.5026 12.6068 10.737 12.6328 10.9453C12.6589 11.1276 12.6719 11.375 12.6719 11.6875V15.75H15.25Z" fill="#2B2B2B"/>
</svg>
