<svg width="20" height="15" viewBox="0 0 20 15" fill="none" xmlns="http://www.w3.org/2000/svg">
<path d="M19.6094 4.96094C19.6875 4.88281 19.7656 4.86979 19.8438 4.92188C19.9479 4.97396 20 5.05208 20 5.15625V13.125C20 13.6458 19.8177 14.0885 19.4531 14.4531C19.0885 14.8177 18.6458 15 18.125 15H1.875C1.35417 15 0.911458 14.8177 0.546875 14.4531C0.182292 14.0885 0 13.6458 0 13.125V5.15625C0 5.05208 0.0390625 4.98698 0.117188 4.96094C0.221354 4.90885 0.3125 4.90885 0.390625 4.96094C1.25 5.61198 3.25521 7.08333 6.40625 9.375C6.45833 9.42708 6.6276 9.57031 6.91406 9.80469C7.22656 10.0391 7.47396 10.2214 7.65625 10.3516C7.83854 10.4557 8.07292 10.599 8.35938 10.7812C8.64583 10.9375 8.91927 11.0547 9.17969 11.1328C9.46615 11.2109 9.73958 11.25 10 11.25C10.2344 11.25 10.4688 11.224 10.7031 11.1719C10.9375 11.0938 11.1589 11.0156 11.3672 10.9375C11.5755 10.8333 11.7969 10.7031 12.0312 10.5469C12.2656 10.3906 12.4609 10.2604 12.6172 10.1562C12.7734 10.026 12.9557 9.88281 13.1641 9.72656C13.3724 9.57031 13.5156 9.45312 13.5938 9.375C16.6667 7.16146 18.6719 5.6901 19.6094 4.96094ZM10 10C9.79167 10 9.53125 9.9349 9.21875 9.80469C8.93229 9.64844 8.69792 9.51823 8.51562 9.41406C8.33333 9.28385 8.0599 9.08854 7.69531 8.82812C7.35677 8.54167 7.17448 8.39844 7.14844 8.39844C3.97135 6.08073 1.70573 4.40104 0.351562 3.35938C0.117188 3.17708 0 2.92969 0 2.61719V1.875C0 1.35417 0.182292 0.911458 0.546875 0.546875C0.911458 0.182292 1.35417 0 1.875 0H18.125C18.6458 0 19.0885 0.182292 19.4531 0.546875C19.8177 0.911458 20 1.35417 20 1.875V2.61719C20 2.92969 19.8828 3.17708 19.6484 3.35938C18.3724 4.34896 16.1068 6.02865 12.8516 8.39844C12.8255 8.39844 12.6302 8.54167 12.2656 8.82812C11.9271 9.08854 11.6667 9.28385 11.4844 9.41406C11.3021 9.51823 11.0547 9.64844 10.7422 9.80469C10.4557 9.9349 10.2083 10 10 10Z" fill="#2B2B2B"/>
</svg>
