<svg width="60" height="60" viewBox="0 0 60 60" fill="none" xmlns="http://www.w3.org/2000/svg">
<path d="M47.5776 0C40.8926 0 35.7863 7.49 35.5713 7.80875C35.1738 8.40125 35.1738 9.1775 35.5713 9.76875C35.7863 10.0875 40.8926 17.5775 47.5776 17.5775C54.2626 17.5775 59.4863 10.0875 59.7013 9.76875C60.0988 9.17625 60.0988 8.4 59.7013 7.80875C59.4863 7.49 54.2626 0 47.5776 0ZM51.0938 10.5475C50.1226 10.5475 49.3363 9.76125 49.3363 8.79C49.3363 7.81875 50.1226 7.0325 51.0938 7.0325C52.0651 7.0325 52.8513 7.81875 52.8513 8.79C52.8513 9.76125 52.0651 10.5475 51.0938 10.5475Z" fill="#159957"/>
<path d="M35.7401 2.18875C34.1963 0.84375 32.2038 0 30.0001 0C29.0288 0 28.2426 0.78625 28.2426 1.7575V15.82C28.2426 16.7913 29.0288 17.5775 30.0001 17.5775C32.2038 17.5775 34.1963 16.7338 35.7401 15.39C34.0126 13.66 32.9076 12.11 32.6538 11.73C31.4526 9.945 31.4526 7.63375 32.6563 5.8475C32.9101 5.4675 34.0126 3.9175 35.7401 2.18875Z" fill="#159957"/>
<path d="M31.4588 30.9512C31.8563 30.3587 31.8563 29.5825 31.4588 28.9912C31.2438 28.6725 26.1375 21.1825 19.4525 21.1825C12.7675 21.1825 7.54376 28.6725 7.32876 28.9912C6.93126 29.5837 6.93126 30.36 7.32876 30.9512C7.54376 31.27 12.7675 38.76 19.4525 38.76C26.1375 38.76 31.245 31.27 31.4588 30.9512ZM22.9688 31.7287C21.9975 31.7287 21.2113 30.9425 21.2113 29.9712C21.2113 29 21.9975 28.2137 22.9688 28.2137C23.94 28.2137 24.7263 29 24.7263 29.9712C24.7263 30.9412 23.94 31.7287 22.9688 31.7287Z" fill="#159957"/>
<path d="M1.7575 38.7597C3.96125 38.7597 5.95375 37.916 7.4975 36.5722C5.77 34.8422 4.665 33.2922 4.41125 32.9122C3.21 31.1272 3.21 28.816 4.4125 27.0297C4.66625 26.651 5.77 25.101 7.4975 23.371C5.95375 22.026 3.96125 21.1835 1.7575 21.1835C0.78625 21.181 0 21.9672 0 22.9397V37.0022C0 37.9735 0.78625 38.7597 1.7575 38.7597Z" fill="#159957"/>
<path d="M47.5776 42.305C40.8926 42.305 35.7863 49.795 35.5713 50.1137C35.1738 50.7062 35.1738 51.4825 35.5713 52.0737C35.7863 52.3925 40.8938 60 47.5776 60C54.2613 60 59.4863 52.3937 59.7013 52.0737C60.0988 51.4812 60.0988 50.705 59.7013 50.1137C59.4863 49.7937 54.2626 42.305 47.5776 42.305ZM51.0938 52.8512C50.1226 52.8512 49.3363 52.065 49.3363 51.0937C49.3363 50.1225 50.1226 49.3362 51.0938 49.3362C52.0651 49.3362 52.8513 50.1225 52.8513 51.0937C52.8513 52.065 52.0651 52.8512 51.0938 52.8512Z" fill="#159957"/>
<path d="M35.7401 44.4925C34.1963 43.1475 32.2026 42.305 30.0001 42.305C29.0288 42.305 28.2426 43.0912 28.2426 44.0625V58.2425C28.2426 59.2137 29.0288 60 30.0001 60C32.2038 60 34.1963 59.1562 35.7401 57.8112C34.0126 56.0812 32.9076 54.4137 32.6538 54.0337C31.4526 52.2487 31.4526 49.9375 32.6563 48.1512C32.9101 47.7725 34.0126 46.2225 35.7401 44.4925Z" fill="#159957"/>
</svg>
