<svg width="60" height="60" viewBox="0 0 60 60" fill="none" xmlns="http://www.w3.org/2000/svg">
<path d="M28.7575 22.4275C29.1013 22.7712 29.55 22.9425 30 22.9425C30.45 22.9425 30.9 22.7712 31.2425 22.4275L32.2313 21.4387C33.8088 19.8612 34.6775 17.765 34.6775 15.5362C34.6775 13.3075 33.8088 11.21 32.2313 9.63375L31.2425 8.645C30.5563 7.95875 29.4425 7.95875 28.7563 8.645L27.7675 9.63375C26.19 11.2112 25.3213 13.3075 25.3213 15.5362C25.3213 17.765 26.19 19.8625 27.7675 21.4387L28.7575 22.4275Z" fill="#159957"/>
<path d="M37.5288 24.36C35.0838 24.36 32.6901 25.3512 30.9626 27.08C30.6088 27.4325 30.2888 27.815 29.9988 28.2175C29.7101 27.815 29.3888 27.4325 29.0363 27.08C27.3088 25.3512 24.9151 24.3587 22.4676 24.3587C21.4963 24.3587 20.7101 25.1462 20.7101 26.1162V28C20.7101 33.1225 24.8776 37.2888 29.9988 37.2888C35.1201 37.2888 39.2876 33.1213 39.2876 28V26.1175C39.2888 25.1462 38.5001 24.36 37.5288 24.36Z" fill="#159957"/>
<path d="M37.5288 39.5387C35.0838 39.5387 32.6901 40.5312 30.9626 42.2587C30.6088 42.6112 30.2888 42.9925 29.9988 43.3962C29.7101 42.9937 29.3888 42.6112 29.0363 42.2587C27.3076 40.53 24.9151 39.5375 22.4676 39.5375C21.4963 39.5375 20.7101 40.325 20.7101 41.295V43.1775C20.7101 48.3 24.8776 52.4662 29.9988 52.4662C35.1201 52.4662 39.2876 48.2987 39.2876 43.1775V41.295C39.2888 40.3262 38.5001 39.5387 37.5288 39.5387Z" fill="#159957"/>
<path d="M28.2426 55.8638V58.2425C28.2426 59.2125 29.0288 60 30.0001 60C30.9713 60 31.7576 59.2125 31.7576 58.2425V55.8638C31.1826 55.9425 30.5963 55.985 30.0001 55.985C29.4038 55.985 28.8176 55.9425 28.2426 55.8638Z" fill="#159957"/>
<path d="M49.4687 14.2975C49.8112 14.64 50.2612 14.8125 50.7112 14.8125C51.1612 14.8125 51.6112 14.6412 51.9537 14.2975L52.9425 13.3087C54.52 11.7312 55.3887 9.63499 55.3887 7.40624C55.3887 5.17749 54.52 3.07999 52.9425 1.50374L51.9537 0.514993C51.2675 -0.171257 50.1537 -0.171257 49.4675 0.514993L48.4787 1.50374C46.9012 3.08124 46.0325 5.17749 46.0325 7.40624C46.0325 9.63624 46.9012 11.7325 48.4787 13.31L49.4687 14.2975Z" fill="#159957"/>
<path d="M58.24 16.2287C55.795 16.2287 53.4013 17.22 51.6738 18.9487C51.32 19.3012 51 19.6837 50.71 20.0862C50.4213 19.6837 50.1 19.3012 49.7475 18.9487C48.02 17.22 45.6263 16.2275 43.1788 16.2275C42.2075 16.2275 41.4213 17.015 41.4213 17.985V19.8675C41.4213 24.99 45.5888 29.1562 50.71 29.1562C55.8325 29.1562 59.9988 24.9887 59.9988 19.8675V17.9875C60 17.0162 59.2113 16.2287 58.24 16.2287Z" fill="#159957"/>
<path d="M58.24 31.4088C55.795 31.4088 53.4013 32.4 51.6738 34.1288C51.32 34.4813 51 34.8625 50.71 35.2662C50.4213 34.8638 50.1 34.4813 49.7475 34.1288C48.0188 32.4 45.6263 31.4075 43.1788 31.4075C42.2075 31.4075 41.4213 32.1938 41.4213 33.165V35.0475C41.4213 40.17 45.5888 44.3363 50.71 44.3363C55.8325 44.3363 59.9988 40.1687 59.9988 35.0475V33.165C60 32.1963 59.2113 31.4088 58.24 31.4088Z" fill="#159957"/>
<path d="M48.9537 47.7325V50.1112C48.9537 51.0825 49.7412 51.8687 50.7112 51.8687C51.6812 51.8687 52.4687 51.0812 52.4687 50.1112V47.7325C51.8937 47.8112 51.3075 47.8537 50.7112 47.8537C50.115 47.8537 49.5287 47.8125 48.9537 47.7325Z" fill="#159957"/>
<path d="M8.04618 14.2975C8.38993 14.64 8.83993 14.8125 9.28868 14.8125C9.73868 14.8125 10.1887 14.6412 10.5312 14.2975L11.5199 13.3087C13.0974 11.7312 13.9649 9.63499 13.9649 7.40624C13.9649 5.17749 13.0962 3.07999 11.5187 1.50374L10.5312 0.514993C9.84493 -0.171257 8.73118 -0.171257 8.04493 0.514993L7.05743 1.50374C5.47993 3.07999 4.61243 5.17624 4.61243 7.40624C4.61243 9.63499 5.48118 11.7325 7.05868 13.3087L8.04618 14.2975Z" fill="#159957"/>
<path d="M16.8187 16.2287C14.3737 16.2287 11.98 17.22 10.2525 18.9487C9.9 19.3012 9.57875 19.6837 9.29 20.0862C9.00125 19.6837 8.68125 19.3012 8.3275 18.9487C6.6 17.2187 4.20625 16.2275 1.75875 16.2275C0.7875 16.2287 0 17.0162 0 17.9875V19.87C0 24.9925 4.1675 29.1587 9.28875 29.1587C14.4112 29.1587 18.5775 24.9912 18.5775 19.87V17.9875C18.5775 17.0162 17.7887 16.2287 16.8187 16.2287Z" fill="#159957"/>
<path d="M16.8187 31.4088C14.3737 31.4088 11.98 32.4 10.2525 34.1288C9.9 34.4813 9.57875 34.8625 9.29 35.2663C9.00125 34.8638 8.68125 34.4813 8.3275 34.1288C6.6 32.4 4.20625 31.4075 1.75875 31.4075C0.7875 31.4088 0 32.1963 0 33.1663V35.0488C0 40.1712 4.1675 44.3375 9.28875 44.3375C14.4112 44.3375 18.5775 40.17 18.5775 35.0488V33.1663C18.5775 32.1963 17.7887 31.4088 16.8187 31.4088Z" fill="#159957"/>
<path d="M7.53125 47.7325V50.1112C7.53125 51.0825 8.31875 51.8687 9.28875 51.8687C10.26 51.8687 11.0462 51.0812 11.0462 50.1112V47.7325C10.4712 47.8112 9.885 47.8537 9.28875 47.8537C8.6925 47.8537 8.10625 47.8125 7.53125 47.7325Z" fill="#159957"/>
</svg>
