<svg width="52" height="60" viewBox="0 0 52 60" fill="none" xmlns="http://www.w3.org/2000/svg">
<path d="M49.5348 16.945H45.6036C45.1923 12.7238 41.6236 9.41376 37.2961 9.41376C32.6936 9.41376 28.9486 13.1588 28.9486 17.7613V19.6513C28.9486 20.9213 28.4336 22.165 27.5348 23.0625C26.6361 23.96 25.3936 24.475 24.1236 24.475H17.4011V26.235C17.4011 31.4938 21.6798 35.7725 26.9386 35.7725H30.7061C31.6773 35.7725 32.4636 36.56 32.4636 37.53C32.4636 38.5013 31.6761 39.2875 30.7061 39.2875H26.9386C19.7411 39.2875 13.8861 33.4325 13.8861 26.235V23.2038L3.33605 17.175C2.16605 16.5063 0.706055 17.3525 0.706055 18.7013V21.6875C0.706055 23.8738 1.5573 25.93 3.10355 27.475L4.4598 28.8313C4.4673 28.8375 4.47105 28.8488 4.47105 28.8588V30C4.47105 41.3513 13.7061 50.5863 25.0573 50.5863C36.4086 50.5863 45.6448 41.3513 45.6448 30V20.4613H49.5348C50.5061 20.4613 51.2923 19.6738 51.2923 18.7038C51.2923 17.7325 50.5061 16.945 49.5348 16.945Z" fill="#159957"/>
<path d="M37.2973 5.8975C42.3873 5.8975 46.7398 9.12125 48.4198 13.6337C49.0561 12.635 49.4111 11.4575 49.4111 10.215C49.4111 7.2625 46.8348 4.71125 43.6211 5.1175C42.9998 2.1975 40.3998 0 37.2948 0C34.1923 0 31.5936 2.1975 30.9736 5.1175C27.8236 4.72 25.1836 7.19875 25.1836 10.2175C25.1836 11.4587 25.5386 12.635 26.1761 13.6337C27.8548 9.12125 32.2061 5.8975 37.2973 5.8975Z" fill="#159957"/>
<path d="M31.2736 56.4838H25.1836L24.7049 54.0975C23.4636 54.08 22.2436 53.9688 21.0549 53.7675L21.5974 56.4825H19.9773C19.0061 56.4825 18.2198 57.27 18.2198 58.24C18.2198 59.2113 19.0061 59.9975 19.9773 59.9975H31.2736C32.2449 59.9975 33.0311 59.21 33.0311 58.24C33.0311 57.2713 32.2436 56.4838 31.2736 56.4838Z" fill="#159957"/>
</svg>
