<svg width="60" height="60" viewBox="0 0 60 60" fill="none" xmlns="http://www.w3.org/2000/svg">
<path d="M58.2313 56.4788H56.4738V45.8163H45.9288V56.4788H38.8988V49.3313H40.6563C41.6275 49.3313 42.4138 48.545 42.4138 47.5738V44.0588C42.4138 41.1513 40.0488 38.7863 37.1413 38.7863H35.3838V35.2713H37.1413C38.1125 35.2713 38.8988 34.485 38.8988 33.5138V26.4838C38.8988 23.5763 36.5338 21.2113 33.6263 21.2113H8.7875C5.88 21.2113 3.515 23.5763 3.515 26.4838V33.5138C3.515 34.485 4.30125 35.2713 5.2725 35.2713H7.03V38.7863H5.2725C2.365 38.7875 0 41.1525 0 44.06V47.575C0 48.5463 0.78625 49.3325 1.7575 49.3325H3.515V56.48H1.7575C0.78625 56.4788 0 57.265 0 58.2363C0 59.2075 0.78625 59.9938 1.7575 59.9938C21.3 59.9938 35.3425 59.9938 58.2313 59.9938C59.2025 59.9938 59.9888 59.2075 59.9888 58.2363C59.9888 57.265 59.2025 56.4788 58.2313 56.4788ZM10.545 35.2725H31.8688V38.7875H10.545V35.2725ZM35.3838 56.4788H7.03V49.3313H35.3838V56.4788Z" fill="#159957"/>
<path d="M59.8025 8.00751L56.2875 0.977506C55.9887 0.382506 55.3812 0.0062561 54.715 0.0062561H47.685C47.0187 0.0062561 46.4112 0.382506 46.1125 0.977506L42.5975 8.00751C42.0425 9.11501 42.6637 10.5513 44.4387 10.5513L45.4625 16.8075C45.8162 18.9375 47.4237 20.51 49.4425 20.995V35.5963C47.4012 36.3238 45.9275 38.2563 45.9275 40.545V42.3025H56.4725V40.545C56.4725 38.2563 54.9987 36.3238 52.9575 35.5963V20.995C54.9775 20.51 56.5837 18.9375 56.9375 16.8075L57.9612 10.5513C59.7787 10.5513 60.345 9.08876 59.8025 8.00751ZM53.4712 16.23C53.33 17.08 52.6012 17.6975 51.7375 17.6975H50.6625C49.7987 17.6975 49.07 17.08 48.9287 16.23L48.0025 10.55H54.3975L53.4712 16.23Z" fill="#159957"/>
</svg>
