<svg width="22" height="15" viewBox="0 0 22 15" fill="none" xmlns="http://www.w3.org/2000/svg">
<path d="M21.2344 2.34375C21.3125 2.65625 21.3776 3.04688 21.4297 3.51562C21.5078 3.98438 21.5599 4.45312 21.5859 4.92188C21.612 5.36458 21.625 5.78125 21.625 6.17188C21.651 6.5625 21.6641 6.88802 21.6641 7.14844V7.5C21.6641 9.84375 21.5208 11.5755 21.2344 12.6953C21.1042 13.138 20.8698 13.5286 20.5312 13.8672C20.1927 14.2057 19.7891 14.4401 19.3203 14.5703C18.8255 14.7005 17.888 14.8047 16.5078 14.8828C15.1276 14.9349 13.8646 14.974 12.7188 15H11C6.54688 15 3.77344 14.8568 2.67969 14.5703C1.66406 14.2839 1.02604 13.6589 0.765625 12.6953C0.635417 12.2005 0.53125 11.5234 0.453125 10.6641C0.401042 9.77865 0.361979 9.03646 0.335938 8.4375V7.5C0.335938 5.18229 0.479167 3.46354 0.765625 2.34375C0.895833 1.875 1.13021 1.47135 1.46875 1.13281C1.80729 0.794271 2.21094 0.559896 2.67969 0.429688C3.17448 0.299479 4.11198 0.208333 5.49219 0.15625C6.8724 0.078125 8.13542 0.0260417 9.28125 0H11C15.4531 0 18.2266 0.143229 19.3203 0.429688C19.7891 0.559896 20.1927 0.794271 20.5312 1.13281C20.8698 1.47135 21.1042 1.875 21.2344 2.34375ZM8.8125 10.7031L14.3984 7.5L8.8125 4.33594V10.7031Z" fill="#2B2B2B"/>
</svg>
